<svg width="48" height="48" viewBox="0 0 48 48" fill="none" xmlns="http://www.w3.org/2000/svg">
<g id="style=outline, state=active, add-friend=true">
<path id="Vector" d="M25.4276 11.8099H27.4276H25.4276ZM17.6177 4V2V4ZM2 41.2126L0.000266671 41.18C-0.0126896 41.9733 0.444539 42.6993 1.16562 43.0303L2 41.2126ZM17.6177 25.8479V27.8479V25.8479ZM33.2355 41.2126L34.0691 43.0306C34.7906 42.6998 35.2482 41.9736 35.2352 41.18L33.2355 41.2126ZM17.6177 44.6115L17.6204 42.6115H17.6177V44.6115ZM40 14C40 12.8954 39.1046 12 38 12C36.8954 12 36 12.8954 36 14H40ZM36 26C36 27.1046 36.8954 28 38 28C39.1046 28 40 27.1046 40 26H36ZM44 22C45.1046 22 46 21.1046 46 20C46 18.8954 45.1046 18 44 18V22ZM32 18C30.8954 18 30 18.8954 30 20C30 21.1046 30.8954 22 32 22V18ZM23.4276 11.8099C23.4276 13.3508 22.8155 14.8286 21.726 15.9181L24.5544 18.7466C26.3941 16.9068 27.4276 14.4117 27.4276 11.8099H23.4276ZM21.726 15.9181C20.6364 17.0077 19.1586 17.6198 17.6177 17.6198V21.6198C20.2195 21.6198 22.7147 20.5863 24.5544 18.7466L21.726 15.9181ZM17.6177 17.6198C16.0768 17.6198 14.5991 17.0077 13.5095 15.9181L10.6811 18.7466C12.5208 20.5863 15.016 21.6198 17.6177 21.6198V17.6198ZM13.5095 15.9181C12.4199 14.8286 11.8078 13.3508 11.8078 11.8099H7.80782C7.80782 14.4117 8.84136 16.9068 10.6811 18.7466L13.5095 15.9181ZM11.8078 11.8099C11.8078 10.269 12.4199 8.79125 13.5095 7.70168L10.6811 4.87326C8.84136 6.71297 7.80782 9.20816 7.80782 11.8099H11.8078ZM13.5095 7.70168C14.5991 6.61211 16.0768 6 17.6177 6V2C15.016 2 12.5208 3.03354 10.6811 4.87326L13.5095 7.70168ZM17.6177 6C19.1586 6 20.6364 6.61211 21.726 7.70168L24.5544 4.87326C22.7147 3.03354 20.2195 2 17.6177 2V6ZM21.726 7.70168C22.8155 8.79125 23.4276 10.269 23.4276 11.8099H27.4276C27.4276 9.20816 26.3941 6.71297 24.5544 4.87326L21.726 7.70168ZM3.99973 41.2453C4.05809 37.6721 5.5185 34.265 8.06602 31.7587L5.26078 28.9073C1.96508 32.1496 0.0757612 36.5574 0.000266671 41.18L3.99973 41.2453ZM8.06602 31.7587C10.6135 29.2525 14.0441 27.8479 17.6177 27.8479V23.8479C12.9945 23.8479 8.55649 25.665 5.26078 28.9073L8.06602 31.7587ZM17.6177 27.8479C21.1914 27.8479 24.6219 29.2525 27.1694 31.7587L29.9747 28.9073C26.679 25.665 22.241 23.8479 17.6177 23.8479V27.8479ZM27.1694 31.7587C29.717 34.265 31.1774 37.6721 31.2357 41.2453L35.2352 41.18C35.1597 36.5574 33.2704 32.1496 29.9747 28.9073L27.1694 31.7587ZM32.4018 39.3947C27.7646 41.521 22.722 42.6184 17.6204 42.6115L17.615 46.6115C23.2938 46.6192 28.9071 45.3976 34.0691 43.0306L32.4018 39.3947ZM17.6177 42.6115C12.3382 42.6115 7.33248 41.4598 2.83438 39.395L1.16562 43.0303C6.17686 45.3307 11.7509 46.6115 17.6177 46.6115V42.6115ZM36 14V20H40V14H36ZM36 20V26H40V20H36ZM44 18L38 18V22L44 22V18ZM38 18L32 18V22H38V18Z" fill="#26262E"/>
</g>
</svg>
