<?xml version="1.0" encoding="UTF-8"?>
<svg id="Capa_2" data-name="Capa 2" xmlns="http://www.w3.org/2000/svg" viewBox="0 0 87 80">
  <defs>
    <style>
      .cls-1 {
        fill: #46444b;
      }

      .cls-2 {
        fill: #feffff;
      }

      .cls-3 {
        fill: none;
        stroke: #feffff;
        stroke-linecap: round;
        stroke-width: .72px;
      }

      .cls-4 {
        fill: #f28d20;
      }
    </style>
  </defs>
  <g id="Capa_1-2" data-name="Capa 1">
    <g>
      <rect class="cls-1" width="87" height="80"/>
      <g id="question">
        <path id="accents" class="cls-3" d="m60.46,22.8c1.54-2.17-.15-4.32-1.71-6.12-2.13-2.46-6.54-4.34-9.79-3.55m10,15.34c.29,2.68,2.04,4.88,3.49,6.83m2.55,2.76c.58.45,1.28,1.84,1.79,2.35m-22.61-6.56c-2.12-1.87-4.82-3.88-4.27-6.99m35.22,23.28c.4-.16,1.46-.87,1.48-1.41.03-.58-1.1-1.82-1.51-2.02m-24.16-31.95c1.85.07,3.42.7,4.82,1.93m3.39,9.87c.23-.5.39-1.01.63-1.51"/>
        <g id="question_2" data-name="question 2">
          <path class="cls-2" d="m57.85,12.91c-2.48-1.4-4.12-2.27-6.92-2.29-2.8-.02-5.31.25-7.74,1.66-2.25,1.31-3.95,2.68-5.23,4.95-.5.89-1.15,1.95-1.51,2.9-1.07,2.8-.76,3.97-.64,5.56.07.96.51,2.59.84,3.5.37,1.03.82,2.01,1.57,2.86,1.42,1.6,1.57,1.75,3.25,3.04.65.5,1.45,1.1,2.22,1.39,1.22.46,1.78.41,2.31-.06,1.02-1.24,1.45-.94,1.78-2.51.24-1.15-.01-1.58-1.13-2.1-1.57-.73-3.23-2.49-4.29-4.39-.3-.55-.42-1.2-.61-1.81-.43-1.41.19-4.69,1.8-5.85,1.24-.89,3.44-1.66,4.75-1.26.3.09.63.11.94.17.99.19,3,.39,3.57,1.18.75,1.04,1.54,1.73,1.95,2.98.59,1.84.31,5.55-.15,7.4-.14.55-.12,1.61.03,2.11.31,1.04.12,1.51.99,2.26,1.8,1.56,1.8,1.69,3.61,3.23.39.33.86.59,1.21.96,1.91,1.45,1.99,1.65,3.95,3.2.59.47,2.15,2.16,2.53,1.71.49-.58.68-.44,1.16-1.03,1-1.23,2.13-1.08,1.34-2.53-.15-.28-.33-.55-.51-.82-1.56-2.37-2.73-3.72-4.3-6.08-.53-.81-1.11-1.59-1.68-2.37-.94-1.27-2.34-3.3-1.72-4.69.23-.52.12-.61.42-1.09.82-1.29,1.68-2.01,1.74-3.5.04-1.13-.3-2.89-.91-3.84-1.51-2.36-2.12-3.48-4.63-4.89Zm4.26,5.83c.78,1.4.44,2.88-.09,4.28-.29.77-.74,1.48-1.1,2.22-.39.81-.59,1.67-.59,2.59,0,.93.22,1.75.74,2.54,1.91,2.92,3.93,5.76,6.12,8.47.6.74,1.38,1.4,1.37,2.66-.27.3-.52.58-.78.85-.69.72-1.18.82-1.97.21-.81-.63-1.6-1.31-2.31-2.05-.85-.89-1.71-1.74-2.77-2.39-.43-.27-.81-.63-1.21-.96-.79-.66-1.53-1.4-2.38-1.96-1.62-1.07-1.96-2.63-1.89-4.36.08-1.85.18-3.71.36-5.55.09-.93-.08-1.79-.39-2.64-.13-.36-.3-.71-.47-1.06-1.15-2.39-1.69-2.83-4.24-3.49-.56-.14-1.12-.29-1.68-.38-1.15-.19-2.28-.15-3.35.39-.34.17-.66.39-1.02.5-3,.96-3.42,3.27-3.53,6.1-.11,2.86,1.33,5.18,3.67,6.86.79.57,1.52,1.18,2.19,1.98-.11.24-.17.49-.31.67-1.41,1.88-1.8,1.93-4.02.77-2.05-1.07-3.43-2.9-4.39-4.99-.46-.99-.77-2.05-1.18-3.06-.51-1.24-.51-2.54-.39-3.8.24-2.55,1.24-4.79,2.89-6.73,1.78-2.09,3.97-3.62,6.55-4.37,3.86-1.13,7.68-.87,11.22,1.42.91.59,1.88,1.19,2.6,1.98.9.99,1.68,2.13,2.33,3.3Z"/>
          <path class="cls-2" d="m75.47,44.52c-.92-.9-.18-1-1.56.03-.2.15-.73.81-.94,1.14-.51.77-.6.78-1.42,1.97-.55.79-.62.79-.15,1.88.7,1.61.62,1.58,1.89,2.67.71.61.66,1.69,1.48,1.18.45-.34.74-.6,1.15-.98.69-.64,1.43-1.55,2.04-2.27,2-2.36,1.43-1.18-.38-3.35-.66-.79-1.37-1.54-2.1-2.26Zm2.49,4.44c-1.1,1-2.16,1.95-3.28,2.96-1.18-.93-2.09-1.95-2.87-3.23.89-1.17,1.13-2.83,2.97-3.52,1.07,1.28,2.33,2.29,3.18,3.78Z"/>
        </g>
        <path id="add-ons" class="cls-3" d="m74.49,53.05c.23.09,3.22.64,3.44.65.56.03.6-.58.77-1.01.2-.51.51-.8.9-1.2.46-.48.78-1.06,1.23-1.55.08-.09.71-.66.55-.72-.86-.33-1.72-.18-2.59-.52m-3.88-4.5c.77-.34,1.53-.07,2.33-.02.8.05,1.71.13,2.46.42.47.18.53.76.6,1.2.07.49.45.93.62,1.4.22.61.38,1.36.51,1.94m-5.65,3.34c1.02.16,1.98-.05,3,0m-1.73-1.54c.68.26,1.65.21,2.37.14m-1.17-1.23c.74,0,1.69.07,2.39.34m-2.43-2.49c.96.24,2.05.15,3.02.2m-4.01-1.16c.61.21,1.32-.1,1.96-.07.34.01.65-.06.99-.05m-4.19-.94c.82-.03,1.6-.11,2.41-.19.55-.05,1.04.01,1.58-.11m-13.36-1.77c.12.03.56-.07.71-.07.59-.02,1.17-.2,1.76-.23.31-.01,1.21-.1,1.44-.31m-1.25-2.03c.51.03,1.48-.1,2,.09m-10.28-13.76c1.19.46,2.47.12,3.71.17m-1.48-6.19c.98-.11,1.95-.06,2.87-.15m4.25,22.08c.84,0,1.19-1.57,1.43-2.21.1-.25.36-.66.26-.92-.22-.57-.6-1.02-.9-1.55-.22-.39-.46-.78-.67-1.19-.12-.23-.37-.41-.51-.65-.16-.26-.24-.66-.46-.88-.28-.28-.34-1.01-.62-1.23-.38-.28-.62-.93-.87-1.31-.42-.65-.76-1.36-1.1-2.05-.15-.31-.34-.57-.45-.87-.12-.32-.31-.64-.53-.9-.28-.33-.27-.79-.43-1.15-.12-.28-.3-.55-.29-.85.02-.37.07-.76.06-1.13-.01-.42.4-1.1.55-1.48.18-.46.27-.84.34-1.33.13-.91.39-1.81.3-2.73-.04-.46-.16-1.08-.42-1.48-.26-.41-.24-1.05-.54-1.45-.46-.63-.9-1.4-1.37-2.09-.42-.62-1.24-.85-1.74-1.36-.44-.44-1.14-.64-1.61-1.09-.51-.5-1.14-.91-1.72-1.32-.65-.46-1.22-.84-1.97-1.13l-1.84-.71c-.27-.1-.48-.15-.75-.19-.31-.05-.69.1-.98,0-.25-.08-.59-.04-.88-.05-.19-.01-.47.02-.66.08-.08.08-2.57.48-2.72.53-1.06.33-2.65.87-3.72,1.1m-.92,24.93c1.18.19,2.51-.23,3.63-.53.87-.24,1.13-1.52,1.41-2.25.26-.67.41-1.18.19-1.87-.13-.41-.87-.81-1.24-.97-.63-.26-1.18-.92-1.65-1.39-.31-.31-.53-.67-.85-.98-.32-.31-.61-.55-.82-.95-.38-.7-.7-1.66-.88-2.43-.28-1.2.08-2.74.66-3.81.51-.92,1.82-1.4,2.81-1.53,1.77-.24,3.52-.62,5.22.04m8.28,9.4c1.33-.32,2.67-.17,3.99-.3m-4.41-2.38c.34.13.4.03.73,0,.65-.08,1.32-.14,1.98-.15.54,0,1.13.06,1.65-.1m-3.64-1.12c1.24-.06,2.55-.05,3.78,0m-2.9-1.51c.71.08,1.65-.01,2.36-.15.3-.06.54,0,.82-.07m-2.66-1.13c.68.24,1.25.1,1.93.15.42.03.69-.2,1.12-.03m-2.9-2.77c.7.05,2-.12,2.68-.42m-3.91-1.9c.87.06,1.65-.21,2.48-.4m-1.4,1.88c.56-.22,1.48-.67,2.09-.65m-3.82-2.15c.53.02.89-.04,1.39-.14.31-.06.57-.17.86-.15m-3.23-.67c.35,0,.71-.19,1.05-.27.1-.02.24.02.32-.02.23-.13.45-.09.68-.27m-3.33-.41c.44-.42.88-.39,1.4-.62m-3.21-.47c.38.07,1.08-.14,1.43-.31.18-.09.41.06.56-.08m-3.04-.4c.5-.26,1.06-.88,1.67-.81m-3.27.19c.23-.51.75-.64,1.08-1.04m-2.97.4c.28-.18,1.24-1.17,1.56-1.04m7.49,20.72c.71-.43,1.58-.67,2.42-.62.6.04,1.24-.14,1.82-.07m-2.79,2.21c.25-.49,1.43-.7,1.94-.76.45-.05.9-.11,1.34-.2m-2.22,2.24c.25.1.63-.12.83-.25.26-.16.78-.25,1.08-.29.31-.04.87-.02,1.1-.23m-2.18,1.87c.48-.03,1.05-.3,1.5-.49.3-.12,1,.02,1.14-.33m1.29,5.92c.8.09,1.54.03,2.32.02m-24.21-7.03c.53.1,1.07-.11,1.6-.13.26-.01.79.15.98-.03m-2.9,2.75c.45-.09,1.08-.31,1.55-.25.23.03.43.09.66.04m-1.42-.84c.32-.21,1.2-.15,1.61-.15m-6.49-5.51c.25-.52.97-.58,1.48-.72.24-.06.38.06.59-.13m-3.4-1.99c.47-.28,1.15-.35,1.71-.41.28-.03.89-.04,1.07-.26m-2.61-1.01c.53.06,1.19.07,1.72-.06.2-.05.56-.12.75-.05m-2.22-1.53c.87.12,1.68.17,2.54.21m-1.96-1.44c.78.15,1.66.04,2.43-.03m-.94-1.33c.75.23,1.92.48,2.65.15m-.95-1.05c.55.09,1.02.1,1.53.3.34.13.98.4,1.33.32m-.25-1.36c.42.29.73.67,1.22.86m16.69,16.72c.45.11,1.23-.35,1.66-.52.3-.13.75-.23,1.07-.26m-1.7,2.15c.11-.17.9-.37,1.14-.47.34-.15.62-.27.98-.26m-1.44,1.96c.34-.15.69-.35,1.05-.46.19-.06.3,0,.46-.12.13-.1.63-.14.79-.08m-23.93-5.76c.26.05.52-.11.76-.17.37-.09.75-.12,1.13-.22.38-.1.75-.15,1.14-.19m-4.84-.51c.78-.48,1.65-.8,2.49-1.17m-3.69.03c.48-.06.78-.52,1.23-.58.18-.02.32-.08.49-.13.32-.1.7-.18,1.03-.16m-3.81-1.67c.4.08,1.02-.17,1.43-.24.26-.05.64-.16.83-.34"/>
      </g>
      <g id="map">
        <path class="cls-4" d="m27.91,42.3c.94.21,1.35.96,1.67,1.77.21.54.7.94,1.27.96.55.01,1.07-.08,1.39-.55.15-.21.28-.43.39-.66.36-.7-.07-1.49-.8-1.77-.98-.38-1.96-.77-2.95-1.09-.27-.09-.55-.17-.83-.25-.27-.08-.56.02-.74.23-.4.48-.02,1.26.6,1.36Z"/>
        <path class="cls-4" d="m34.86,49.64s-.01-.04-.02-.06c0,0,0-.02,0-.02-.08-.22-.14-.45-.2-.68-.07-.29-.15-.57-.26-.84-.05-.11-.2-.12-.26-.02-.3.5-.62,1.02-1,1.6-.04.07-.02.16.05.21.51.33,1.07.59,1.64.77,1.3.26,2.63.37,3.95.32.9-.01,1.8.03,2.7.11.07,0,.13-.03.15-.09l.09-.24c.11-.28.22-.57.33-.85.03-.08-.02-.18-.1-.2-.35-.08-.76-.18-1.16-.29-.05-.01-.1-.05-.12-.1,0,0,0-.01,0-.02-.03-.12.04-.23.07-.35l.05-.19c.44-1.6.89-3.26.85-4.96,0-.07-.06-.13-.13-.14-.19-.03-.38-.05-.57-.07-.08,0-.15.05-.16.13-.19,1.55-.46,3.09-.83,4.6-.11.51-.22,1.02-.33,1.53,0,.08-.07.13-.14.13-.03,0-.06.01-.09.04-.04.03-.08.05-.13.04-.39,0-.79.01-1.17.02-1.02.09-2.04.02-3.03-.2-.07-.01-.12-.07-.14-.14,0-.02,0-.04-.01-.06Z"/>
        <path class="cls-4" d="m17.51,47.19c.23.3-.03.21.38.12.98-.2,1.73-.86,2.56-1.38.06-.04.12-.07.18-.09.12-.04.27-.02.37.08.03.03.06.05.09.08.35.32.9.25,1.19-.12.13-.17.26-.33.39-.49.24-.3.07-.75-.31-.81-.19-.03-.37-.06-.54-.09-.18-.01-.35-.02-.52-.03-.31-.01-.61-.05-.91-.11-.21-.05-.41-.13-.59-.25-.12-.09-.17-.15-.16-.17.01-.03.1-.01.23.03.18.05.37.09.56.1.24.02.54.02.87.02.17,0,.35,0,.54,0h.02s.04,0,.04,0h.03s.07.01.07.01l.14.02c.09.02.19.03.28.05.33.06.64.11.93.17.09.02.17-.01.23-.08.12-.15.03-.37-.16-.39-.89-.11-1.78-.18-2.68-.2-.1,0-.19-.04-.25-.11-.08-.09-.12-.21-.13-.33,0-.03,0-.06-.01-.1-.09-.74-1-.98-1.57-.5-.64.53-1.54,1.19-1.94,2-.05.09-.03.21-.03.31,0,.08.01.16,0,.23,0,.55,0,1.15.34,1.58.11.15.23.3.35.44Z"/>
        <path class="cls-4" d="m24.32,44.86c-.15-.01-.29.04-.38.15-.21.26-.42.52-.63.78-.54.67-.42,1.65.29,2.15.1.07.21.15.31.22.36.25.81.34,1.23.23.54-.14,1.08-.3,1.64-.41.39-.08.75-.27.98-.59.02-.03.04-.05.06-.08.29-.41.32-.93.14-1.4-.07-.18-.14-.37-.2-.56-.22-.63-.78-1.09-1.45-1.15-.46-.04-.92-.09-1.37-.15-.11-.01-.22.03-.29.12-.1.12-.19.23-.29.35-.02.02,0,.05.02.06.5.13.8.24.79.29-.01.06-.33.05-.84-.01Z"/>
        <path class="cls-4" d="m14.63,50.67c.35-.38.69-.77,1.04-1.15.41-.45.41-1.16.04-1.64-.32-.41-.9-.44-1.3-.1-.33.28-.63.58-.92.9-.09.11-.19.21-.28.32-.63.71-.6,2.11.35,2.2.34.03.69-.1,1.07-.52Z"/>
        <path class="cls-4" d="m21.68,42.32c-.03-.39-.1-.78-.19-1.16-.08-.31-.13-.63-.17-.94-.01-.12-.17-.18-.25-.09-.19.2-.38.4-.56.6-.03.04-.05.09-.04.14h0c.19.7.33,1.4.44,2.11,0,.07.07.13.14.13,1.15.04,2.32.18,3.35.31.05,0,.1-.01.13-.05.09-.11.19-.22.31-.36.08-.09.02-.24-.1-.24l-.53-.03c-.73-.04-1.49-.08-2.24-.11-.06,0-.12-.03-.15-.07-.01-.02-.02-.04-.04-.06-.01-.01-.02-.03-.04-.04-.03-.04-.05-.09-.05-.14Z"/>
        <path class="cls-4" d="m35.04,47.88c-.06.01-.1.07-.08.14.1.29.17.58.25.88.08.28.31.49.59.54.68.1,1.38.08,2.07.06.7-.03,1.32-.52,1.47-1.2.27-1.21.49-2.42.68-3.64.08-.55-.33-1.05-.88-1.06-.55-.01-.98.44-1.08.98-.3,1.57-1.4,3.06-3.02,3.32Zm3.8-1.18s0,0,0,0c.11-.69.19-1.31.31-1.3.1,0,.21.6.09,1.37-.13.74-.35,1.3-.46,1.28-.11-.02-.07-.63.06-1.35,0,0,0,0,0,0Z"/>
        <path class="cls-4" d="m20.32,48.14s-.1-.01-.14.02c-1.37,1.07-2.57,2.33-3.86,3.49-.35.31-.33.88.06,1.14.34.23.8.13,1.01-.21.2-.33.4-.65.61-.97.74-1.13,1.55-2.2,2.37-3.26.06-.07.03-.18-.05-.21Z"/>
        <path class="cls-4" d="m22.17,49.47c-.61-.49-1.48-.41-1.95.22-.72.97-1.41,1.97-2.05,2.99-.31.52-.16,1.21.36,1.52.9.54,1.83,1.02,2.81,1.36.89.3,1.71-.42,1.66-1.36-.05-1.05-.11-2.1-.07-3.15.03-.61-.29-1.2-.76-1.59Zm-.56,5.37c-.52-.3-1.05-.57-1.6-.81-.42-.17-.67-.27-.66-.32.01-.04.28-.02.73.08.27.07.53.16.79.27.29.12.62-.1.61-.41-.06-.85-.04-1.71.07-2.56.03-.16.06-.31.09-.44.04-.13.08-.23.11-.32.06-.17.11-.26.14-.26.03,0,.03.11.01.29,0,.09-.02.2-.04.33-.01.13-.02.27-.03.43-.03.84-.01,1.68.05,2.51.02.36.02.71.02,1.04h0c0,.15-.16.24-.29.17Z"/>
        <path class="cls-4" d="m16.37,54.25c.07.04.15.02.2-.05.06-.1.13-.2.19-.3.04-.07.02-.16-.04-.2-.36-.24-.73-.49-1.08-.74l-.67-.46c-.06-.04-.1-.1-.09-.17,0-.08.05-.16.11-.2.03-.02.06-.05.07-.09.01-.04.03-.07.06-.09.75-.62,1.46-1.29,2.15-1.95.86-.85,1.77-1.65,2.72-2.4.03-.02.06-.03.09-.03.05,0,.1-.02.12-.06h0s.05-.03.08-.02c.02.01.04.03.05.05l.03.03s.02.02.04.03c.01,0,.02.01.03.02.04.02.08.03.13.05.1.03.19.07.28.12.06.04.15.02.19-.04.11-.15.23-.3.36-.47l.04-.05c.05-.06.04-.15-.03-.2-.2-.17-.4-.34-.6-.51h0s-.12-.05-.18-.01c-.15.1-.31.2-.46.3-.84.56-1.63,1.08-2.62,1.17-.15.01-.22-.07-.34-.24-.03-.04-.07-.09-.1-.13-.33-.39-.62-.79-.89-1.16-.05-.07-.14-.08-.21-.03l-.4.29c-.07.05-.08.16-.02.23.22.22.42.46.6.7.23.31.49.61.78.87.06.05.1.12.11.2,0,.06,0,.13-.06.18-.34.37-.68.74-1.01,1.12-.25.28-.5.55-.75.83-.06.07-.12.14-.18.21-.23.33-.55.6-.93.76-.8.23-1.44-.23-2.12-.72-.16-.12-.33-.23-.49-.34-.06-.04-.13-.03-.18.02-.09.09-.18.18-.28.27l-.09.09c-.07.07-.05.2.04.24,1.83.87,3.61,1.85,5.34,2.91Z"/>
        <path class="cls-4" d="m21.87,39.55s-.02.04-.01.05c0,.04.01.08,0,.12-.03.36.02.72.09,1.07.15.74.81,1.3,1.56,1.34.39.02.79.05,1.18.07.37.02.73-.14.96-.42.56-.66.24-1.67-.61-1.83-1.04-.2-2.09-.34-3.15-.42-.01,0-.03,0-.04.01Z"/>
        <path class="cls-4" d="m43.75,67.89c.8.4,1.74-.03,1.95-.9.27-1.12.47-2.26.76-3.35.16-.64-.17-1.3-.75-1.6-.77-.39-1.54-.8-2.42-.78-.01,0-.02,0-.03,0-.06,0-.11,0-.17,0-.28.02-.57.04-.85.07-.57.06-.72.72-.18.92.1.03.17.1.21.19.04.1.07.21.08.32.07,1.14.08,2.29.04,3.43-.02.58.27,1.14.78,1.42.19.1.39.2.58.3Zm-.73-2.57s0-.06,0-.09c.02-.66.27-.65.27.01,0,.03,0,.06,0,.08,0,.19.01.39.04.58.01.1.03.2.06.29,0,.01,0,.02.01.03.02.05.04.12.09.13.01,0,.01,0,.04.02.21.11.43.2.66.27.18.06.36.13.53.21.03.01.07,0,.08-.03.12-.26.2-.54.29-.81.07-.27.15-.53.21-.78.12-.5.22-.96.33-1.35.2-.77.41-1.23.46-1.21.06.02-.05.49-.18,1.27-.06.39-.14.85-.24,1.37-.04.26-.12.53-.19.81-.08.29-.18.58-.29.85-.04.1-.08.19-.12.29-.05.12-.2.16-.3.08h-.01c-.21-.15-.44-.26-.68-.33-.26-.08-.51-.2-.74-.34-.04-.03-.07-.06-.1-.09-.02-.02-.04-.05-.06-.08-.04-.07-.07-.14-.09-.21-.03-.12-.05-.24-.06-.37,0-.21,0-.41.01-.62Z"/>
        <path class="cls-4" d="m40.86,66.34c0,.06.02.12.07.15h0c.16.09.32.18.48.28.16.09.37-.02.37-.21l.02-.42c.07-1.11.06-2.22-.02-3.32,0-.06-.04-.1-.09-.12-.69-.29-1.32-.7-1.85-1.22-.04-.03-.06-.08-.06-.13,0-.03-.01-.06-.02-.09,0-.02,0-.04,0-.06,0-.04.03-.09.07-.11.02-.01.05-.02.07-.02,1.08-.18,2.06-.3,3-.36.07,0,.12-.06.13-.13.08-.45.2-.89.36-1.31l.1-.29c.16-.53.26-1.07.3-1.62.03-.22.05-.45.08-.67,0-.06-.02-.12-.07-.15-.52-.33-.99-.74-1.4-1.2-.43-.49-.93-.91-1.48-1.25-.08-.04-.17,0-.21.07l-.32.78s-.01.1.02.14c.41.5.92.91,1.49,1.22.3.18.58.37.86.59.03.02.05.03.08.04.03.02.05.04.06.07.02.04.02.09,0,.14-.12.35-.22.71-.29,1.07-.21.97-.39,1.81-1.53,2.04-.79.12-1.61.05-2.37-.19-.08-.02-.16.02-.18.1l-.05.17c-.06.2-.12.41-.18.61-.04.16-.08.31-.13.47l-.02.09c-.02.06,0,.13.06.16.81.5,1.65,1.06,2.59,1.72.03.02.06.06.08.1h0s.02.04.04.06c.04.04.07.09.06.15,0,.16,0,.33,0,.49.02.73-.03,1.46-.13,2.19Z"/>
        <path class="cls-4" d="m40.44,64.36c0-.37-.18-.72-.49-.93-.17-.12-.34-.23-.5-.34-.67-.45-1.57-.11-1.87.65-.2.52-.07,1.12.43,1.35.25.12.52.23.8.33.76.28,1.62-.25,1.63-1.06Z"/>
        <path class="cls-4" d="m48.18,51.33c.75.44,1.74.1,2.03-.72.2-.57.37-1.14.47-1.73.09-.53-.29-1-.8-1.16-.88-.27-1.96.46-2.15,1.36-.05.22-.1.44-.16.66-.17.62.06,1.27.61,1.6Z"/>
        <path class="cls-4" d="m17.32,55.98c-.06.09-.03.22.06.27,1.32.73,2.61,1.51,3.91,2.26.24.14.47.29.71.44.45.3,1.02-.02.95-.56-.03-.24-.19-.45-.42-.54-1.66-.61-3.51-.88-4.94-1.93-.09-.06-.21-.04-.27.05Z"/>
        <path class="cls-4" d="m24.73,57.95c.78.29,1.59.47,2.42.55.06,0,.12-.03.15-.08l.09-.19c.13-.26-.04-.57-.33-.61-.5-.05-1-.14-1.49-.25h-.05c-.13-.03-.26-.07-.37-.14-.1-.06-.18-.15-.23-.25-.17-.35-.16-.81-.14-1.26,0-.21.01-.4,0-.59-.03-.48-.06-.95-.09-1.42-.07-1.03-.14-2.09-.17-3.14,0-.03-.01-.07-.04-.09-.04-.04-.06-.09-.06-.14,0-.04.03-.08.07-.11.63-.5,1.5-.56,2.33-.62.3-.02.61-.04.89-.08.04,0,.09-.03.13-.04.05,0,.09,0,.14.01.05.03.08.07.09.13.18.61.51,1.17.96,1.63.1.12.21.24.31.37.21.28.38.58.53.89.05.11.11.21.17.32.02.03.03.05.05.08l.03.04c.06.09.19.1.25,0,.17-.25.34-.5.51-.76.08-.11.16-.23.25-.36.04-.06.03-.15-.03-.2-1.78-1.51-2.45-2.91-2-4.15.27-.76,1.21-1.05,1.97-1.28.1-.03.2-.06.29-.09,1.69-.55,2.79-1.66,3.08-3.13,0-.02,0-.03,0-.05,0-.07-.05-.13-.12-.15h-.01c-.15-.05-.3-.1-.45-.16-.08-.03-.17.02-.19.1-.19.94-.65,1.8-1.33,2.48-.53.46-1.35.38-2.08.31-.2-.02-.39-.04-.57-.04-.07,0-.14-.04-.17-.1-.02-.04-.03-.07-.04-.11-.07-.18-.14-.36-.2-.55-.13-.41-.3-.8-.51-1.17-.47-.75-1.1-.73-1.75-.72-.14,0-.28,0-.43,0-.3,0-.6-.02-.9-.04-.05,0-.09.02-.12.05-.08.09-.16.19-.24.29l-.11.14c-.08.09-.02.23.1.24.69.08,1.5.16,2.32.19.02,0,.03,0,.05,0,.02,0,.04,0,.06,0h0s.09,0,.13.03c.04.03.06.07.07.12.19.81.44,1.6.77,2.37l.12.32c.03.06.07.13.05.2,0,.03-.03.06-.06.08h-.01s-.05.05-.05.08c0,0,0,.02-.01.03-.14.27-.32.52-.51.76-.16.2-.32.41-.45.63-.02.05-.06.08-.11.09-.05.01-.11,0-.17,0-.65.09-1.29.23-1.92.43-.37.1-.76.21-1.14.3-.07.02-.15,0-.2-.07-.03-.04-.06-.07-.1-.09l-.45-.3c-.56-.39-1.14-.8-1.69-1.22-.01,0-.02-.01-.03-.02-.07-.03-.15-.01-.2.05h0c-.12.17-.24.32-.36.47-.05.06-.04.16.03.21.16.13.32.26.47.4.44.42.94.76,1.48,1.02.03.01.06.03.08.06.02.02.04.04.07.05.03,0,.06.03.08.06.03.06,0,.14,0,.21-.13,1.33-.14,2.68-.04,4.02.04.75.08,1.53.07,2.29,0,.02,0,.05-.01.07,0,.02,0,.03,0,.05h0c0,.06-.01.12-.05.16-.04.03-.09.05-.14.04-2.33-.21-4.39-1.38-6.1-2.49-.07-.04-.16-.02-.21.05-.35.56-.65,1.01-.95,1.42-.05.07-.03.17.05.22l.12.07c.05.03.11.06.17.09.06.03.14.02.18-.04.13-.18.26-.36.36-.56.02-.03.05-.06.09-.07.03-.01.05-.03.06-.05h0c.04-.06.11-.1.18-.11.06,0,.12.01.16.06,1.02.94,2.38,1.33,3.7,1.71.7.18,1.4.41,2.07.69.1.05.16.16.14.27h0s0,.03,0,.04c.02.2.05.41.07.61.08.52.12,1.04.11,1.57,0,.02,0,.03,0,.05-.02.06,0,.13.06.16.18.12.37.23.56.33.09.05.21-.01.22-.12.04-.55.04-1.11.05-1.65v-.5s0-.04,0-.05c0-.01,0-.03,0-.04-.02-.08,0-.17.06-.24.05-.04.11-.05.17-.02Z"/>
        <path class="cls-4" d="m36.71,59.43c-.11-.03-.21.06-.19.17h0c.07.35.12.7.14,1.06,0,.05.03.1.08.13.29.15.57.31.85.47.08.05.19,0,.21-.09l.14-.49c.06-.22.12-.44.18-.66.02-.08-.02-.16-.1-.18-.18-.05-.36-.11-.53-.16-.27-.09-.53-.17-.79-.24Z"/>
        <path class="cls-4" d="m10.86,53.15c-.2-.03-.44-.07-.69-.1-.06,0-.13,0-.19-.01-.02,0-.04,0-.06,0-.08,0-.15,0-.23.02-.03,0-.07.01-.1.02-.06.02-.12.03-.18.06-.24.09-.22.44.02.52,1.91.62,3.86,1.08,5.77,1.69.21.06.43,0,.56-.18.17-.23.1-.55-.15-.7-1.63-1-3.32-1.9-5.06-2.71,0,0,0,0,0,0,0,0-.02,0-.03,0-.33.3-.67.59-1.02.87-.03.03,0,.08.03.07.08-.02.15-.02.22-.03.16,0,.32,0,.47.03.24.05.47.11.7.19.39.13.61.23.61.29,0,.05-.27.05-.67-.01Z"/>
        <path class="cls-4" d="m34.18,55.56s.01-.1.03-.14c.01-.03.03-.05.05-.07.04-.04.09-.06.14-.05,1.09-.02,2.17-.12,3.24-.29.76-.1,1.53-.21,2.31-.26.05,0,.1-.04.13-.09.03-.07.06-.15.1-.24.05-.11.09-.22.14-.33l.09-.22s.01-.04.02-.06h0s0-.05,0-.07v-.02c-.01-.08-.08-.13-.16-.13-.24,0-.49.02-.73.06-2.92.41-5.32.35-7.51-1.23-.13-.09-.27-.2-.41-.31-.07-.05-.16-.04-.21.03-.28.42-.56.83-.84,1.25-.04.06-.03.14.02.19.65.59,1.49.69,2.39.81.15.02.31.04.47.06.07,0,.13.05.16.1.05.08.06.2,0,.27-.02.02-.04.04-.07.05-.05.01-.1.05-.11.1-.17.72-.27,1.46-.29,2.21-.03.42-.05.85-.11,1.27,0,.02,0,.05-.01.07-.03.08-.11.14-.19.14-.03,0-.06,0-.08,0-.9-.15-1.81-.32-2.69-.49-.62-.12-1.25-.24-1.87-.35-.07-.01-.13.02-.16.08l-.24.49c-.05.09.02.2.12.21.31.02.61.05.92.07,1.24.03,2.47.21,3.67.55.02,0,.03.01.04.02.01,0,.02.01.04.02.02,0,.04.01.05.02.04.02.08.05.11.09.03.05.04.11.02.16-.16.75-.25,1.52-.24,2.28,0,.62-.06,1.24-.16,1.85-.01.08.03.15.11.17.31.08.62.15.93.22h.01c.08.02.16-.04.16-.13,0,0,0-.02,0-.03.32-1.43.43-2.9.35-4.36-.07-1.32.02-2.65.25-3.95Z"/>
        <path class="cls-4" d="m47.05,46.53s0-.02-.02-.03c-.18-.08-.36-.16-.54-.24,0,0-.02,0-.02,0-.22,1.26.07,3.33-1.05,4.13-.4.29-.86.05-1.29-.07-.38-.11-.77-.2-1.15-.29-.25-.06-.5.08-.59.32-.12.31.08.66.41.72,1.01.2,2,.54,2.91,1.02.87.49,1.58,1.2,2.38,1.78.41.3.95.06,1.1-.42.11-.35-.04-.74-.35-.92-.74-.43-1.48-.86-2.21-1.32-.14-.09-.2-.25-.16-.41.44-1.36.97-2.86.57-4.28Z"/>
        <path class="cls-4" d="m35.17,47.11c.7-.28,1.3-.77,1.71-1.41.3-.46.48-.99.54-1.53.04-.34-.26-.62-.6-.62-.29,0-.54.18-.64.45-.34.97-.76,1.91-1.24,2.82-.09.16.05.35.22.28Z"/>
        <path class="cls-4" d="m28.06,40.11c.33.1.65.2.98.3.88.29,1.76.63,2.62.97,1.35.57,2.74,1.04,4.16,1.41.08.02.15-.03.18-.1.02-.08.04-.16.06-.23l.03-.14c.02-.08-.03-.17-.12-.18-.03,0-.06-.02-.08-.03-1.08-.62-2.25-1.06-3.46-1.3-1.37-.35-2.66-.68-3.75-1.55-.06-.05-.16-.04-.21.02-.1.13-.2.25-.31.38l-.18.22c-.07.08-.03.2.07.23Z"/>
        <path class="cls-4" d="m37.5,42.99c2.17,0,4.42.02,6.47.79.08.03.17-.01.19-.09l.19-.62c.03-.09-.03-.18-.13-.19-.91-.09-1.82-.23-2.72-.42-1.57-.31-3.2-.63-4.84-.35-.06,0-.11.05-.12.11-.05.2-.09.4-.14.59-.02.09.04.18.14.19.32,0,.63,0,.95,0Z"/>
        <path class="cls-4" d="m48.55,55.85c.11-.44-.09-.89-.46-1.15-.93-.64-1.71-1.48-2.73-1.99-.92-.45-1.9-.78-2.91-.96-.33-.06-.64.13-.77.44-.18.44.11.93.56,1.08.16.05.31.11.46.18,1.08.45,2.09,1.03,3.03,1.73.46.36.89.75,1.32,1.14.52.47,1.32.22,1.5-.46Z"/>
        <path class="cls-4" d="m42.96,48.91c-.07.19.04.41.24.45.39.09,1.75.72,2.01.19.46-.92.39-2.01.52-3.04.04-.34-.12-.68-.41-.87-.47-.3-1.15-.14-1.33.39-.33.96-.67,1.92-1.03,2.87Z"/>
        <path class="cls-4" d="m25.39,61.55c-.98-.37-1.9-.87-2.73-1.5-.42-.29-.86-.58-1.31-.85-.38-.22-.76-.45-1.14-.67-1.37-.81-2.79-1.64-4.22-2.4-.03-.02-.07-.02-.11-.01-.02,0-.04,0-.06,0-.05,0-.1.02-.13.06-.1.13-.21.26-.32.38l-.03.03c-.05.06-.05.15.01.2,2.77,2.59,6.25,4.15,9.57,5.53.06.03.14,0,.18-.05.12-.17.24-.33.36-.5.05-.08.01-.19-.08-.22Z"/>
        <path class="cls-4" d="m25.35,60.94c.23.08.48-.02.6-.23.16-.28.31-.56.46-.84.21-.4-.05-.89-.5-.99-.43-.09-.85.22-.86.66,0,.29-.02.58-.03.87-.01.23.11.45.33.53Z"/>
        <path class="cls-4" d="m15.12,55.9c-.93-.3-1.88-.56-2.81-.82-1.56-.4-3.09-.89-4.6-1.44-.08-.03-.14-.1-.15-.19,0-.08.04-.16.11-.21,1.86-1.23,3.53-2.72,4.95-4.44.6-.73,1.27-1.4,2.01-1.99.17-.13.35-.25.53-.36.37-.19.69-.48.92-.83.02-.04.02-.08,0-.12,0-.02-.01-.04-.01-.07,0-1.16.96-2.07,1.86-2.83.73-.62,1.4-1.31,2.04-1.97.48-.49.98-1.01,1.5-1.49.01-.01.03-.03.04-.04.02-.02.03-.05.04-.07.03-.05.1-.08.16-.07,1.9.11,3.78.43,5.61.94.06.02.11,0,.15-.05.12-.15.25-.3.37-.46.08-.09.01-.24-.11-.24-2.1-.03-4.19-.38-6.19-1.04-.06-.02-.12,0-.16.05-.3.36-1.02,1.09-1.86,1.93-3.3,3.31-4.7,4.87-4.29,5.35.07.08.07.19,0,.28-.05.08-.14.11-.22.09h-.04s-.05-.01-.07,0c0,0-.02,0-.03,0-1.13.1-1.8.87-2.45,1.62l-.23.26c-.3.33-.6.67-.9,1-.33.36-.66.73-.99,1.09-1.21,1.37-2.42,2.68-3.96,3.63-.1.06-.09.2.01.26,2.42,1.26,5.16,2.68,8.38,2.8.02,0,.04,0,.06.01h0s.1,0,.13-.03l.03-.04s.09-.1.13-.15l.08-.1c.07-.08.03-.21-.07-.24Z"/>
        <path class="cls-4" d="m26.31,61.82s-.04-.02-.06-.04c-.03-.03-.07-.05-.11-.05h-.05c-.06,0-.11.02-.14.07-.11.17-.22.34-.34.5-.06.09-.01.21.09.23,1.03.24,2.02.62,2.96,1.12.58.28,1.19.57,1.8.8,1.76.65,3.6,1.05,5.47,1.18.05,0,.11-.02.14-.07.11-.17.2-.34.3-.51.05-.09-.01-.21-.12-.22-3.15-.2-6.21-1.13-9.93-3.01Z"/>
        <path class="cls-4" d="m47.92,58.23c.03-.11,0-.23-.1-.31-.5-.39-.99-.81-1.48-1.23-.35-.3-.86-.29-1.27-.08-.37.19-.65.53-.69.94-.04.32-.09.65-.15.97-.02.07-.04.15-.06.22-.01.03-.02.05-.03.08-.32.89.34,1.84,1.19,2.25.03.01.05.03.08.04.82.4,1.74-.04,1.98-.92.18-.65.36-1.31.54-1.96Z"/>
        <path class="cls-4" d="m42.51,54.9c.49.55,1.08,1.01,1.72,1.37,0,0,.01,0,.01.01.01.01.03.02.05.02h.03s.03,0,.04,0c.31-.1.6-.26.86-.46.08-.06.08-.18,0-.24-1.05-.89-2.29-1.54-3.62-1.89-.15-.03-.25.17-.12.26.36.28.69.59,1.01.92Z"/>
        <path class="cls-4" d="m33.57,48.09c.06-.11-.02-.24-.15-.22-.31.04-.61.14-.88.3-.15.08-.26.21-.31.36-.03.08-.03.17-.02.25.04.23.16.44.35.59.07.06.17.05.23-.03.27-.42.53-.83.79-1.26Z"/>
        <path class="cls-4" d="m37.1,62.97c.23-.66-.06-1.38-.68-1.71-.05-.03-.1-.06-.16-.08-.12-.05-.19-.18-.17-.3,0-.04,0-.09,0-.13-.03-.52-.1-1.03-.23-1.54-.02-.12.02-.24.1-.33.05-.05.12-.09.19-.1.09-.02.19-.02.28,0,.1.02.2.05.3.08.81.21,1.65-.22,1.93-1.01.02-.06.04-.11.06-.17.39-1.08-.45-2.19-1.59-2.04-.41.05-.82.1-1.23.14-.71.07-1.33.57-1.39,1.29-.16,1.81.06,3.65-.13,5.46-.08.81.42,1.62,1.24,1.69.57.05,1.1-.28,1.31-.81.06-.14.11-.29.16-.44Z"/>
        <path class="cls-4" d="m41.74,49.03c.23.05.46-.07.54-.29.46-1.22.89-2.46,1.3-3.7.13-.4-.08-.84-.48-.95-.48-.14-.93.24-.97.74-.1,1.23-.4,2.43-.72,3.62-.07.25.08.52.34.58Z"/>
        <path class="cls-4" d="m51.97,47.14c-.71-.29-1.43-.53-2.16-.74-1.89-.57-4.03-1.21-4.92-2.8-.06-.11-.23-.09-.27.03v.05c-.05.12-.09.25-.13.37-.02.05,0,.1.03.14.77.97,1.96,1.48,3.02,1.89.38.15.76.32,1.14.49.77.4,1.59.69,2.43.86.03,0,.05.01.07.03.01,0,.03.02.04.03.01,0,.02.01.04.02.06.04.1.1.1.18.04,1.33-.4,2.53-.86,3.79-.09.25-.18.5-.27.76-.44,1.25-.78,2.55-1.11,3.81-.17.64-.33,1.27-.51,1.9-.44,1.57-.8,2.88-1.13,4.12-.01.04,0,.09.02.12.03.05.04.11.02.16-.01.07-.06.12-.11.16-.04.02-.06.05-.07.09l-.1.38c-.07.27-.14.55-.21.82-.15.6-.29,1.23-.42,1.84-.22,1.14-.51,2.27-.88,3.37-.01.03-.03.06-.05.09-.01.01-.03.03-.04.04-.02.02-.03.04-.05.06-.02.02-.04.04-.07.05-.04.01-.08.01-.12,0-1.32-.55-2.61-1.2-3.84-1.94-.49-.28-.99-.56-1.49-.83-.43-.22-.88-.4-1.34-.56-.61-.18-1.19-.45-1.73-.79-.07-.05-.17-.03-.21.05-.05.08-.1.17-.14.25l-.04.07c-.04.07-.02.15.04.2.02.01.04.03.05.05,0,0,.01.02.02.03l.03.03s0,0,0,0c0,0,0,0,0,0,.93.65,1.91,1.24,2.92,1.76.68.37,1.39.75,2.05,1.17.25.15.49.31.74.47,1.29.83,2.62,1.7,4.15,1.98.09.02.17-.05.17-.13.12-1.31.33-2.61.62-3.9.08-.38.15-.75.22-1.12.41-2.11.82-4.16,1.38-6.16.3-1.09.64-2.18.96-3.24.92-3,1.88-6.09,2.1-9.35h0c0-.06-.03-.12-.09-.15Z"/>
        <path class="cls-4" d="m33.51,50.75c-.39-.2-.9-.13-1.15.23-.22.32-.16.76.16.98.6.41,1.24.76,1.91,1.02,1.7.52,3.2.31,4.93.1.24-.03.47-.05.71-.06.31-.02.58-.2.7-.48.19-.47-.13-1-.64-1.01-.05,0-.09,0-.14,0-2.11,0-4.54.16-6.5-.78Z"/>
        <path class="cls-4" d="m35.31,43.25c-.19-.05-.39.07-.44.26-.55,1.95-2.23,2.72-4.04,3.37-2.03.73-1.4,2.25-.09,3.59.35.36.93.28,1.21-.14.21-.32.17-.73-.03-1.06-.39-.66-.41-1.36.6-1.72.16-.05.32-.09.48-.12.52-.11,1.01-.37,1.26-.84.5-.94.93-1.91,1.28-2.92.06-.18-.05-.38-.23-.43Z"/>
        <path class="cls-4" d="m40.21,59.68c.86.05,1.59-.13,1.79-1.1.04-.2.08-.41.12-.61.09-.46-.06-.95-.45-1.2-.7-.45-1.77-.18-2.05.6-.1.28-.2.56-.3.84-.24.69.17,1.43.9,1.48Z"/>
        <path class="cls-4" d="m26.61,61.34c1.16.6,2.36,1.13,3.59,1.58.86.31,1.75-.25,1.78-1.16,0-.23.02-.47.03-.7.04-.79-.43-1.56-1.22-1.68-.71-.11-1.42-.15-2.14-.2-.63-.04-1.23.3-1.52.86-.22.41-.44.82-.68,1.22,0,0,0,.02,0,.03,0,0,.01,0,.02.01.05,0,.1.02.14.04Z"/>
        <path class="cls-4" d="m26.3,53.39c.12.8.19,1.61.2,2.42,0,.06.04.12.11.13.16.03.31.07.47.1.67.14,1.34-.19,1.68-.78.18-.31.36-.62.54-.92.29-.49.32-1.09.02-1.58-.31-.5-.64-1-.99-1.48-.05-.06-.1-.12-.15-.18-.41-.54-1.03-.99-1.72-.94-.17.01-.34.03-.51.06-.56.09-.86.64-.84,1.2.05,1.09.14,2.18.2,3.27.03.52-.22,2.02.43,2.14.6.11,1.2.22,1.8.32.11.02.22-.04.27-.14.1-.2-.02-.45-.25-.49-.33-.06-.68-.12-1.04-.2-.09-.02-.18-.04-.26-.06-.09-.02-.16-.1-.16-.2h0c.01-1.04-.05-1.98-.08-2.67-.04-.33.26-.36.27-.02Z"/>
        <path class="cls-4" d="m32.65,56.25c.09-.71-.41-1.35-1.11-1.51-.07-.02-.14-.04-.21-.06-.61-.17-1.38-.06-1.71.49-.16.27-.31.54-.46.81-.12.21,0,.47.25.52.69.1.66.38-.03.28-.12,0-.24-.02-.37-.03-.14-.02-.28.06-.34.18-.1.2.02.44.24.48.68.12,1.36.24,2.04.36.84.15,1.6-.48,1.7-1.33,0-.06.01-.13.02-.19Z"/>
      </g>
    </g>
  </g>
</svg>