<?xml version="1.0" encoding="UTF-8"?>
<svg id="Capa_2" data-name="Capa 2" xmlns="http://www.w3.org/2000/svg" xmlns:xlink="http://www.w3.org/1999/xlink" viewBox="0 0 88.33 116.52">
  <defs>
    <style>
      .cls-1 {
        fill: #46444b;
      }

      .cls-2 {
        fill: #feffff;
      }

      .cls-3 {
        clip-path: url(#clippath);
      }

      .cls-4 {
        fill: none;
      }

      .cls-5 {
        fill: #f28d20;
        fill-rule: evenodd;
      }
    </style>
    <clipPath id="clippath">
      <rect class="cls-4" x="1.33" y="10.39" width="87" height="80"/>
    </clipPath>
  </defs>
  <g id="Capa_1-2" data-name="Capa 1">
    <g>
      <rect class="cls-1" x="1.33" y="10.39" width="87" height="80"/>
      <g class="cls-3">
        <path id="headphones" class="cls-5" d="m22.55,63l-9.66-14.53s-1.24-2.13.32-3.55c1.56-1.43,3.52-1.3,6.74,2.51,3.23,3.8,6.09,7.75,8.72,11.4,2.63,3.64,6.29,9.57,5.79,11.82-.5,2.25-3.23,3.25-4.71,2.17-1.48-1.08-7.27-9.84-7.21-9.81h0Zm31.95-8.01l1.66-17.37s.09-2.46-1.96-2.98c-2.05-.52-3.71.52-4.76,5.39-1.05,4.88-1.71,9.71-2.32,14.16-.6,4.45-1.03,11.4.47,13.15,1.5,1.75,4.38,1.34,5.18-.31.8-1.65,1.77-12.11,1.73-12.05h0Zm1.48-19.57c.19-.1.37-.15.56-.15,1.33.06,4.27,1.62,4.27,1.62,0,0,1,.63.87,3.36-.13,2.73-.39,8.42-.39,8.42l4.8,1.27s2.65.71,2.36,2.67c-.29,1.97-2.86.98-2.86.98l-4.59-1.47s-.9,7.69-1.41,10.8c-.51,3.11-2.02,5.25-2.71,5.63-.69.38-2.03.38-3.05.32-.58-.03-1.09-.32-1.49-.64.34-.26.62-.59.82-1,.57-1.17.95-4.63,1.12-6.01.18-1.42.34-2.85.48-4.27.05-.47.09-.94.14-1.41.01-.13.02-.26.03-.39,0-.04,0-.08,0-.12l1.67-17.39c.04-.79-.18-1.59-.61-2.23h0Zm6.02,5.14c.51.2,1.19.54,1.62,1.07.45.55.71,3.85.74,7.51l-2.72-.72c.14-2.61.24-5.24.36-7.85h0Zm2.28,12.98c-.05,1.12-.13,2.19-.23,3.12-.55,5.06-1.28,6.67-2.16,7.41-.46.39-1.58.75-2.53,1.01.27-.8.46-1.56.55-2.09.56-3.39,1-6.97,1.37-10.41l3,.96Zm3.74.31s-.72.65-3.38-.17c0,0,.06,1.67-.22,2.36,0,0,3.25.28,3.59-2.2Zm-.25-3.62s-.77-.84-2.33-1.02l-2.25-14.63.32-.44-3.51-3.71s-.64,0-1.53-.56c-.89-.57-2.36-2.12-2.36-2.12,0,0-.57.27-2.15-1.01-8-6.49-15.22-7.99-24.96-5.77-9.52,2.39-15.45,7.71-19.3,16.86-.79,1.88-1.42,1.91-1.42,1.91,0,0-.57,2.06-1.09,2.98-.52.92-1.09,1.22-1.09,1.22l-1.34,4.93.49.24,4.91,13.96c-1.29.89-1.57,2-1.57,2,0-.07-7.06-14.89-7.06-14.89l.82-.36c-4.88-13.81-1.1-22.95,1.56-27.66,4.45-7.88,12.9-13.43,21.53-15.34,8.51-2.39,18.57-1.47,26.22,3.38,4.57,2.9,12.21,9.18,14.42,23.66l.89-.07s.77,16.4.8,16.46h0ZM28.59,19.36c6.93-1.8,15.53-1.24,21.95,2.32,4.7,2.61,9.67,7.51,9.67,7.51,0,0,.45.4.27.89l3.4,3.89s-.49-10.03-8.21-18.26c-6-6.39-15.05-7.95-23.3-7.31-2.17.19-4.28.55-6.27,1.04-1.99.51-4.02,1.19-6.02,2.04-7.57,3.33-14.82,8.97-17.09,17.43-2.93,10.9,1.37,19.97,1.37,19.97l1.16-5.04c-.39-.34-.18-.91-.18-.91,0,0,2.07-6.66,4.98-11.18,3.98-6.17,11.31-10.72,18.27-12.4h0Zm-16.58,27.08c-.21,0-.4.04-.56.13-1.15.67-3,3.45-3,3.45,0,0-.58,1.02.81,3.37,1.4,2.35,4.31,7.24,4.31,7.24l-3.63,3.38s-2.01,1.88-.82,3.47c1.18,1.6,2.99-.49,2.99-.49l3.35-3.46s4.42,6.36,6.34,8.86c1.92,2.5,4.26,3.68,5.04,3.69.79,0,1.97-.62,2.84-1.15.5-.3.81-.79,1.01-1.26-.42-.07-.83-.23-1.2-.5-1.05-.77-3.02-3.64-3.82-4.77-.83-1.17-1.64-2.35-2.44-3.54-.26-.39-.52-.78-.78-1.18-.07-.11-.14-.22-.22-.33-.02-.03-.04-.07-.05-.1l-9.67-14.55c-.41-.68-.59-1.49-.51-2.26h0Zm-2.89,7.37c-.36.41-.8,1.03-.93,1.71-.13.7,1.19,3.73,2.89,6.97l2.06-1.92c-1.35-2.24-2.68-4.5-4.02-6.75h0Zm4.11,12.52c.57.97,1.14,1.87,1.67,2.64,2.87,4.2,4.28,5.28,5.4,5.52.59.13,1.75-.08,2.71-.3-.61-.58-1.14-1.16-1.47-1.59-2.09-2.73-4.17-5.68-6.12-8.53l-2.19,2.26Zm-3.15,2.03s.94.23,2.9-1.74c0,0,.73,1.5,1.31,1.98,0,0-2.74,1.78-4.2-.24ZM41.72.28s-.92.77-.71,1.62c.21.85.9,1.51.9,1.51,0,0,3.91,1.12,4.74.92.83-.21,1.95-.37,3.21.22,1.26.58,11.45,2.06,18.21,24.38,6.76,22.32-.42,27.31-3.59,29.36l-.13,1.35s15.12-6.67,5.42-31.38C60.09,3.55,50.43,2.37,50.43,2.37c0,0-2.21-.41-2.59-.98-.38-.57-3.54-1.99-6.12-1.11h0Z"/>
        <g id="cherub">
          <g id="cherub_2" data-name="cherub 2">
            <path class="cls-2" d="m47.06,112.94s.02.01.03.02l.12.06s.05.03.08.03c.02,0,.03.01.05.02.04,0,.09.02.13.03.11,0,.21-.02.31-.07-.12-.26-.2-.53-.23-.81,0-.06,0-.12,0-.17v-.08s0-.06,0-.06c0-.02,0-.04,0-.04v-.05c.03-.13.06-.26.11-.38.15-.37.39-.71.7-.97.17-.16.36-.31.55-.44.14-.1.25-.15.3-.11.06.04.06.15.02.33-.09.23-.2.45-.33.67-.38.65-.63,1.48.06,2.06.02.03.03.05.05.06l.02.03h.01c.06.03.13.05.2.06.06.01.13.02.19.02h.1s.02.01.03.02c.02,0,0-.01.01.01,0,0,.01,0,.01-.01-.06-.17-.09-.35-.09-.53,0-.24.03-.47.1-.7.1-.35.26-.68.47-.98.36-.51.71-.69.8-.6.09.09-.02.42-.17.92-.09.28-.16.57-.21.86-.12.95.62,1.01,1.09.28.25-.47.61-.88,1.04-1.19.45-.27.95-.39,1.39-.69.84-.6,1.53-1.38,2.03-2.29,1-1.9,1.66-3.96,1.94-6.09,0-.04.02-.08.03-.12.01-.17.08-.34.19-.47,3.58-4.22,3.7-9.75,5.13-14.85-.15.14-.3.27-.44.38-.45.35-.78.48-.87.39-.18-.21.75-1.21,1.61-2.53.1-.15.18-.3.26-.44.19-.84.14-1.73-.14-2.55-.57-1.47-1.61-3.97-3.71-3.6-1.76.31-3.25,1.3-4.85,2.03.17.55.3,1.11.4,1.68.14.25.26.51.36.78.12.3.22.61.3.93.04.17.06.35.09.53l.04.27v.24s.02.25.02.25v.12s0,.06,0,.06v.07s0,.03,0,.03h0c-.01.18-.04.36-.07.53,0,.05-.02.11-.03.16-.05.27-.12.53-.21.79-.1.29-.24.57-.4.83-.08.12-.16.24-.26.35-.1.1-.2.2-.32.28l-.11.06c.05.13.11.26.17.39.07.17.07.36,0,.52,0,.02,0,.03,0,.04-.93,3.54-2.07,7.15-2.76,10.74-.03.15-.1.3-.21.41,0,0,0,.01-.01.01-1.57,1.98-3.03,4.05-4.37,6.2-.09.15-.23.27-.39.34-.13.13-.3.21-.48.22-1.16.13-2.54.86-2.26,2.18l.04-.05c.11-.17.2-.34.32-.5.19-.31.51-.52.87-.56.22.01.33.08.34.14.01.06-.1.14-.26.23-.15.15-.26.33-.33.54-.06.15-.12.32-.21.53l-.08.16s-.04.08-.06.11l-.04.07c-.19.3-.67.58-.72.94-.06.41.44.84.8.95.15.04.31.06.46.04h.05s.02.02.02.02c.05-.02.1,0,.15-.02.02,0,.05,0,.06-.01,0,0,.01,0,.02,0,.03-.12.07-.22.09-.31.02-.08.04-.16.06-.24,0-.08.01-.16,0-.23-.02-.2-.03-.41-.03-.6-.03-.47.15-.92.49-1.24.23-.2.53-.31.83-.3.17.05.27.1.27.17,0,.07-.07.14-.23.22-.14.11-.26.24-.35.38-.12.21-.15.45-.1.68.03.19.06.4.09.61.01.14.01.28,0,.42-.02.14-.05.27-.09.41-.07.27-.15.42-.17.57-.02.09-.03.18,0,.27.01.03.03.06.06.08l.02.02s-.02,0-.02,0Zm3.19-90.4h0s.04,0,.04,0l.12.03.26.07c.35.09.75.18,1.17.32.51.15.97.43,1.34.81.1.13.2.26.28.41.07.15.13.31.17.47.03.16.04.31.05.47l-.02.28c.46.18.88.45,1.24.79.3.3.52.67.66,1.07.12.42.16.85.12,1.28-.04.35-.07.71-.12,1.08,0,.02,0,.04.02.05-.02,0,.05.07.06.1.11.13.23.27.37.42.16.17.31.36.45.56.16.23.28.49.37.76.05.16.07.32.08.48v.25s-.05.26-.05.26c-.04.17-.1.33-.18.48h0s0,.01,0,.01c0,.01,0,.02.01.02,0,0,0,0,0,0l.1.18c.09.14.15.3.18.47.05.16.08.33.08.5.04.69-.2,1.37-.65,1.88-.39.44-.81.79-1.17,1.14-.14.13-.26.27-.35.44-.05.12-.06.26-.02.38.06.22.14.44.24.64l.18.35c.11-.47.29-.92.55-1.33,1.02-1.5,2.76-2.35,4.57-2.21,3.92.41,6.92,4.32,8.2,7.81,1.06,2.87,1.44,6.02,2.11,9,.65,2.54.5,5.22-.44,7.67-1.24,3.11-3.06,5.94-4.33,9.04-.91,2.19-1.32,4.93-2.54,6.98,1.06,1.15,1.63,2.67,1.6,4.24,0,.06,0,.12,0,.18.42.85.64,1.79.63,2.74-.18,1.82-.56,3.62-1.13,5.35-.44,1.75-.63,3.54-1.02,5.3-.53,2.78-1.62,5.43-3.19,7.78.56.43,1.04.92,1.6,1.37.56.36,1,.89,1.24,1.52.29,1.24-.11,2.42-1.5,2.58-.06,0-.12,0-.17-.01,0,.33-.1.65-.28.92-.08.12-.18.22-.29.3l-.09.05h-.03s-.04.04-.04.04c-.03.02-.06.04-.12.08-.14.09-.29.15-.45.16-.13.01-.26-.01-.38-.06,0,.03,0,.07-.02.1-.04.22-.13.43-.26.62l-.15.18-.06.07h-.02s-.04.04-.04.04l-.07.05-.15.09c-.1.06-.21.1-.33.11-.11.03-.22.03-.33,0-.35-.04-.67-.24-.85-.54-.03-.04-.05-.09-.08-.14-.86,1.68-2.33,2.96-4.1,3.59-.02.03-.04.06-.06.09-.22.24-.46.46-.71.66-.23.17-.55.19-.8.06-.08.1-.17.19-.27.27-.24.2-.54.31-.85.29-.1,0-.19-.02-.28-.07-.09-.03-.18-.08-.26-.14h0s0,0,0,0l-.08.07h-.01s-.01,0-.01,0h-.03s-.05.03-.05.03c-.07.03-.15.05-.23.07-.06.01-.11.02-.18.02-.13.02-.25.02-.38,0-.12,0-.23-.02-.34-.05h-.01s-.01,0-.01,0l-.07-.03h-.03s-.05-.04-.05-.04l-.11-.06c-.07-.04-.13-.08-.18-.14-.09-.07-.16-.14-.23-.23-.12.15-.29.26-.47.32-.11.03-.21.04-.32.04-.12,0-.24-.02-.36-.05l-.12-.04h-.03s-.01-.01-.01-.01l-.04-.02h-.02s-.09-.07-.09-.07c-.14-.07-.26-.18-.35-.31-.06-.09-.1-.19-.13-.29-.22.1-.45.17-.68.19-.23.01-.47-.02-.69-.09-.13-.04-.25-.1-.36-.18-.1-.08-.2-.17-.29-.26-.28-.37-.45-.82-.46-1.28-.02-.18-.01-.35,0-.53,0-.08.03-.16.05-.23-.2-.08-.36-.26-.42-.47-.73-2.22.86-3.89,2.85-4.4-.27-1.13-.47-2.28-.59-3.43-2.37-3.11-3.12-6.46-4.32-10.07-2.37-.55-5.77-1.68-6.54-4.17-.3-.12-.54-.34-.69-.62-.46-1.13-.7-2.35-.7-3.57-.17-.02-.32-.09-.44-.21-5.96-5.51-12.47-10.7-16.39-17.99-2.6-4.7-3.25-10.24-1.83-15.42.9-3.74,2.44-9.34,6.57-10.69,1.77-.57,3.73.34,5.01,1.55,2.52,2.36,3.41,6.24,7.1,7.06.02,0,.03.01.05.02.62-.66,1.31-1.25,2.06-1.74-.08-.09-.15-.17-.23-.25-.81.38-1.72.45-2.58.2-.97-.32-1.81-.92-2.43-1.74-.57-.72-.93-1.58-1.05-2.48,0-.23-.03-.44-.02-.66.02-.22.04-.45.08-.67.12-.45.26-.75.33-1,.12-.5.05-.63-.37-1.13-.24-.26-.43-.55-.59-.86-.05-.16-.11-.32-.16-.47-.06-.15-.06-.31-.1-.46-.14-.79-.01-1.61.37-2.31-.46-.47-.77-1.06-.88-1.71-.13-.57-.18-1.16-.15-1.74.02-.53.1-1.06.25-1.57.08-.26.18-.51.31-.74.14-.24.31-.46.51-.64.33-.28.7-.52,1.1-.71.26-.12.5-.27.72-.45.3-.29.46-.7.43-1.12,0-.05,0-.09,0-.15-.15-.36-.24-.74-.26-1.12-.03-.44,0-.88.07-1.32.06-.4.15-.8.28-1.19.06-.19.13-.38.22-.56.08-.19.18-.37.3-.54.42-.61.96-1.11,1.6-1.49.52-.33,1.08-.59,1.67-.78.94-.32,1.92-.5,2.91-.53.31,0,.6,0,.87.03,0-.02,0-.03,0-.06.15-.68.67-1.22,1.35-1.38,1.69-.32,3.43-.14,5.01.54,1.11.4,2.15.94,3.11,1.62.59.41,1.11.91,1.55,1.48.26.35.45.74.57,1.15.03.11.06.23.07.35.02.12.02.24.02.37,0,.16-.02.12-.02.13Zm2.58,21.46c-.38.14-.79.17-1.19.09-.15.33-.31.66-.49.97.2-.02.4-.03.61-.04.35-.33.71-.67,1.07-1.03Zm14.87,17.74c1.28-2.66,2.18-5.24,1.61-8.23-.49-2.57-.98-5.25-1.65-7.78-.84-3.17-3.25-8.21-7.01-8.61-3.38-.36-3.41,2.42-4.38,4.76-.56,1.25-1.36,2.37-2.36,3.29,1.36.22,2.64.79,3.72,1.65.1-.06.2-.13.28-.21.37-.35.58-.85.56-1.36l-.05-.82.82.21c.43.12.84.29,1.23.5.64.31,1.83,1.22,1.68-.1-.04-.3-.07-.6-.1-.89l-.16-1.36,1.21.65c.34.19.61.38.85.52.15.11.32.19.5.24.02-.02.03-.04.04-.07.04-.08.07-.16.1-.25.02-.13.07-.3.07-.4-.01-.08,0-.15,0-.24-.01-.09-.02-.18-.04-.27-.05-.18-.13-.34-.24-.49-.24-.31-.52-.58-.85-.79-.54-.33-1.09-.62-1.67-.88-.42-.2-.64-.34-.62-.44.02-.1.29-.13.77-.08.69.07,1.36.25,1.99.53.48.22.91.53,1.27.91.48.52.72,1.22.67,1.92-.01.17-.03.29-.05.44-.03.2-.09.39-.17.58-.09.24-.24.45-.43.62-.12.11-.27.19-.42.25-.15.05-.3.07-.46.06-.28-.02-.56-.09-.82-.22,0,.13,0,.26-.03.39-.03.18-.09.36-.16.53-.1.21-.25.4-.44.54-.03.03-.06.05-.1.07l-.07.04-.1.06s-.02,0-.03,0h-.04s-.08.04-.08.04l-.15.04c-.18.04-.36.04-.54.02-.28-.03-.55-.1-.81-.21-.41-.17-.81-.37-1.2-.6-.11-.06-.21-.12-.32-.18-.21.59-.63,1.08-1.17,1.39.53.68.9,1.48,1.08,2.33l.14-1.03.89.83c.24.23.46.47.67.72.31.34.7.98,1.15.58.29-.25.32-.78.46-1.11l.43-.97.72.76c.37.39.63.72.9.99.15.17.34.31.55.4-.01,0-.03.01-.04.02,0,.01.01.01.04,0l.06-.03s.04-.02.07-.04c.08-.07.14-.16.18-.26.1-.25.17-.51.21-.78.14-1.09.08-1.82.27-1.86.16-.05.56.62.67,1.9.03.38,0,.76-.1,1.12-.07.25-.19.49-.35.69-.1.12-.23.23-.37.32l-.06.04s-.07.04-.1.05c-.42.18-.91.14-1.3-.1-.23-.13-.45-.28-.65-.45-.08-.07-.15-.14-.23-.21-.05.1-.09.21-.15.32-.11.21-.24.41-.4.59-.12.13-.25.24-.41.32-.06.03-.11.05-.17.06l-.09.03h-.05s-.12.02-.12.02c-.02,0-.14,0-.14,0-.11,0-.22-.03-.33-.06-.08-.02-.15-.05-.22-.08-.12-.05-.23-.12-.33-.19-.17-.12-.33-.26-.47-.4-.24-.25-.47-.52-.68-.79,0,0,0-.02-.01-.02-.12.09-.27.14-.42.16.09,1.56.04,3.12-.15,4.67-.34,3.54-.81,7.09-1.38,10.61.15.37.29.75.41,1.13,0-.29.01-.57.03-.86.06-.67.19-1.33.4-1.97.19-.56.41-1.12.66-1.66.46-1.01.89-1.87,1.18-2.6.59-1.47.61-2.48.83-2.5.1,0,.21.24.29.73.07.69.03,1.39-.14,2.06-.24.96-.55,1.91-.93,2.83-.18.51-.39,1.02-.53,1.56-.16.54-.26,1.09-.32,1.65-.07,1.14-.05,2.28.06,3.41.02.11.03.21.04.32.06-.26.13-.52.19-.79.08-.31.18-.62.3-.93l.08-.23.04-.11.03-.1.03-.06c.07-.15.14-.3.2-.45,1.1-2.44,2.16-4.52,2.77-6.1.62-1.54.9-2.62,1.12-2.57.17.04.26,1.1-.14,2.88-.61,2.2-1.42,4.34-2.42,6.38-.06.15-.13.3-.2.44l-.02.06v.02s-.05.12-.05.12l-.08.22c-.12.29-.22.58-.3.87-.07.27-.15.53-.22.8-.04.27-.08.54-.12.79-.03.25-.04.5-.03.75,0,.12.11.24.11.35h0s-.05.06-.05.06v.1s0,.19,0,.19c.02.2.07.39.14.58.07.18.16.35.25.51.11.17.22.33.33.49.39-1.01.72-2.05.98-3.11.43-1.22.89-2.44,1.4-3.64.96-2.25,2.18-4.35,3.23-6.55Zm-6.06,15.2c.33.14.64.32.93.53-.4-.56-1.01-.92-1.69-1.02-1.57-.17-3.15-.04-4.66.41-.15.5-.32,1-.51,1.47,1.9-1.01,4.03-2.2,5.94-1.39Zm-4.24-16.36c.37-3.25,1.57-7.74.28-10.9-1.27-3.14-5.09-3.38-7.95-2.78h-.04c-.14.22-.31.45-.49.67-.82,1.11-1.65,1.89-1.84,1.74-.2-.15.28-1.12,1.05-2.18-.31.09-.64.14-.96.16-.54-.05-.88-.16-.9-.34-.02-.18.28-.38.78-.55.53-.23,1.02-.54,1.46-.9.26-.26.5-.53.73-.82,2.36-3.93,1.47-8.52,1.05-12.96-.28-2.99-3.43-4.48-6.15-3.68-1.37.4-2.51-.23-3.85-.06-.08.04-.16.06-.25.06-4.81.49-5.71,3.13-6.04,7.35,0,.16.03.32.02.44s-.03.19-.09.22c-.06.03-.14,0-.23-.07-.13-.09-.23-.22-.3-.37-.05-.09-.1-.2-.15-.32-.04-.11-.07-.23-.1-.35,0-.02,0-.05-.02-.07-.44.68-.74,1.69-.1,2.03.3.15.47.48.42.81.11,1.53.04,3.21.65,4.64.48,1.06,1.15,2.02,1.98,2.83.03.02.07.04.11.06.11.03.21.09.29.16.05.03.09.05.14.08.66.37,1.34.68,2.05.92.5.2.94.27.95.45.01.16-.33.42-1.07.44-.64,0-1.27-.12-1.86-.37,0,.01,0,.03,0,.04h0c.02.27-.12.52-.35.65-2.84,1.58-4.67,4.51-4.86,7.77-.28,3.81.89,7.58,3.27,10.56,1.17,1.56,2.37,3.07,3.68,4.5.7.63,1.25,1.4,1.63,2.27,1.1,3.05,2.88,5.81,5.19,8.07.49-1.23,1.38-2.26,2.54-2.91.06-.03.11-.05.17-.07.01-.08.04-.16.05-.25.03-.15.05-.3.07-.46,0-.02,0-.05,0-.08,0-.49-.04-.97-.14-1.44-.29-1.34-.71-2.65-1.26-3.91-.15-.35-.32-.72-.5-1.07l-.14-.26-.16-.25c-.1-.18-.21-.35-.34-.51-.09-.12-.18-.25-.29-.38l-.1.06-.12-.33c-.41-.47-.8-.97-1.15-1.49-.28-.43-.5-.9-.65-1.4-.14-.44-.26-.86-.38-1.28-.26-.82-.52-1.56-.82-2.29-.14-.37-.3-.72-.45-1.05-.07-.17-.15-.34-.22-.51l-.11-.23-.12-.24c-.32-.64-.61-1.23-.88-1.77-1.04-2.16-1.86-3.39-1.7-3.52.12-.12,1.25.96,2.54,3.05.33.52.67,1.09,1.03,1.7l.13.23.14.26c.08.17.17.34.26.51.18.34.36.69.53,1.07.29.61.56,1.3.81,2,.14-.1.28-.19.43-.28h0c.72-.37,1.52-.56,2.33-.55.59,0,.96.06.98.19.02.12-.33.29-.88.45-.69.16-1.35.4-1.98.71-.21.11-.4.24-.58.37.08.26.16.52.25.78.09.28.21.56.36.81.61-.19,1.24-.31,1.88-.35.6-.03.98,0,1,.1.02.11-.31.29-.88.48-.43.11-.94.31-1.5.52.18.25.39.5.6.76,1.13-.34,1.95-.25,1.96-.11.01.17-.61.34-1.48.73.07.09.13.17.19.25.13.18.25.38.36.57l.18.3.15.31c.19.4.35.79.5,1.18.24.64.44,1.28.62,1.94,0-.06.02-.12.02-.19.23-1.75.57-3.66.7-5.61.02-.49.08-.94.05-1.45,0-.24,0-.49-.01-.73v-.18s-.01-.15-.01-.15l-.03-.37c-.03-.48-.07-.95-.08-1.42-.01-.48-.04-.92-.03-1.39.01-.47,0-.93.06-1.33.02-.21.04-.41.06-.61l.03-.3v-.15c.02-.09.04-.12.04-.18.14-.76.38-1.5.71-2.2.6-1.24,1.19-2.13,1.51-2.77.34-.65.53-1.04.63-1,.08.03.07.45-.13,1.19-.19.76-.66,1.75-1.12,2.96-.24.64-.39,1.3-.48,1.97,0,.04,0,.08-.01.11v.15s-.02.3-.02.3c0,.2-.02.41-.03.61-.02.41-.02.83,0,1.24,0,.41.04.86.07,1.31.03.45.07.91.11,1.39l.05.57v.18c.01.24.02.49.02.73.03.48-.02,1.03-.04,1.56-.18,1.92-.45,3.83-.82,5.72-.15.86-.29,1.68-.38,2.44-.03.19-.05.38-.08.56l-.02.14-.02.17-.05.27c-.25,1.36-1.15,2.21-1.84,3.35-.3.49-.54,1.01-.72,1.56-.1.31-.12.63-.08.95.03.16.35.65.32.76.03-.15.07-.29.11-.45.14-.42.35-.82.62-1.17.15-.2.31-.38.5-.55.11-.08.22-.15.34-.23l.04-.03s.08-.04.08-.04h.02s.08-.04.08-.04l.16-.06c.65-.21,1.36.01,1.78.55.33.43.44.99.29,1.51.04,0,.08,0,.14,0,.26.05.47.22.59.46.09.18.12.39.1.59-.01.07-.02.13-.03.19l.17-.14c.18-.15.31-.22.36-.18.05.04.02.18-.07.39-.06.13-.12.26-.19.38-.1.13-.23.29-.37.46-.28.33-.63.65-.92,1.05l-.11.13s-.07.1-.09.15c-.04.08-.06.17-.07.27-.01.07-.01.13,0,.2.02.01,0,0,.02.04.05.06.12.13.12.09.14.04.29.03.42-.05.22-.1.43-.23.61-.38.19-.16.37-.32.53-.48l.06-.06.03-.02h0s.02-.02.02-.02c.03-.04.09-.12.09-.12.07-.09.15-.18.19-.25.05-.07.11-.17.16-.26.03-.07.06-.16.1-.25.04-.09.08-.17.12-.26.07-.13.17-.23.29-.31.19-.11.41-.13.62-.05.14.06.26.15.35.27.04.03.07.08.1.12.04.07.08.14.12.21.05.11.08.24.09.36.04.43-.02.86-.18,1.26-.06.19-.14.38-.23.55-.05.09-.09.17-.14.26l-.02.03s.05,0,.08,0c.02,0,.03-.02.05-.03.23-.21.41-.47.53-.77.18-.38.29-.79.33-1.21.1-1.46-.25-2.92-1.01-4.18-1.06-1.96.06-3.15.61-5.06.5-1.97.9-3.97,1.2-5.98.58-3.19,1.14-6.47,1.51-9.7Zm-1.83-28.52c0-.06,0-.12-.02-.18-.04-.14-.1-.28-.19-.4-.1-.15-.21-.3-.33-.43-.13-.15-.27-.32-.41-.51l-.12-.19c-.04-.07-.08-.15-.11-.23-.06-.17-.09-.35-.08-.52,0-.12.02-.24.04-.35l.04-.28c.03-.18.05-.36.07-.53.04-.27.02-.55-.04-.82-.07-.23-.18-.45-.34-.62-.37-.36-.81-.63-1.3-.8-.47-.19-.95-.33-1.4-.48-.45-.15-.85-.28-1.22-.4-.61-.2-1.2-.45-1.77-.75-.88-.49-1.14-.87-1.1-.93.07-.1.44.1,1.33.41.44.15,1.03.31,1.77.49.38.09.79.18,1.24.29.18.04.37.08.57.13-.02-.08-.05-.15-.1-.2-.21-.19-.45-.32-.72-.4-.32-.11-.68-.2-1.06-.3l-.29-.08-.16-.06c-.09-.02-.17-.05-.25-.09-.33-.14-.66-.3-.95-.45.04-.18.09-.36.14-.55l.07-.28v-.15c.01-.06.01-.11,0-.17,0-.06-.02-.11-.03-.17-.07-.25-.19-.48-.34-.7-.35-.46-.76-.86-1.22-1.2-.85-.62-1.78-1.14-2.76-1.53-1.34-.63-2.81-.91-4.29-.81-.01,0-.03.02-.04.02-.11.08-.26.17-.4.28-.07.05-.13.11-.18.17.05.03.1.06.16.08.11.05.22.09.34.12.29.07.58.13.88.16.32.04.64.07.99.08,1.17.04,2.32.37,3.34.96.55.33,1.03.75,1.43,1.24.27.34.48.72.61,1.13.07.28.08.45.02.47-.06.03-.17-.09-.35-.33-.23-.3-.49-.58-.77-.83-.84-.75-1.86-1.27-2.96-1.53.27.18.53.39.76.62.49.5.88,1.08,1.16,1.72.14.34.36.65.64.9.16.09.35.12.53.09.14-.03.23-.02.26.02.03.04,0,.12-.13.25-.25.2-.58.27-.88.17-.46-.21-.85-.55-1.11-.99-.17-.23-.32-.48-.5-.7-.2-.25-.42-.48-.67-.68-.61-.51-1.34-.86-2.11-1.01-.46-.09-.94-.11-1.4-.05-.51.05-1.01.22-1.46.48-.51.28-.92.7-1.19,1.21-.27.51-.4,1.09-.35,1.66.02.15.06.3.11.44.06.14.13.26.2.4.18.27.41.49.68.66.3.19.67.34,1.13.57.42.22.8.51,1.11.87.07-.03.14-.06.22-.07.42-.1.85-.12,1.27-.06-.04-.05-.07-.09-.11-.13-.16-.28-.39-.51-.68-.66-.62-.27-1.59-.61-1.98-1.47-.2-.37-.29-.8-.23-1.22.02-.42.17-.82.44-1.15.28-.3.67-.47,1.08-.47.32,0,.63.04.94.14.83.27,1.62.66,2.34,1.15.51.34.77.55.74.6-.03.05-.35-.05-.9-.29-.75-.35-1.53-.63-2.33-.84-.48-.11-1.07-.12-1.28.2-.25.46-.26,1.02-.04,1.5.14.25.35.46.61.59.14.08.29.15.44.21.18.08.36.15.54.22l.32.18c.1.07.2.15.29.23.15.16.3.33.43.51.19.28.44.51.73.68.15.07.3.13.46.18.35-.03.7-.09,1.04-.16-.06-.03-.13-.05-.19-.08-.62-.27-1.21-.58-1.79-.94-.28-.17-.53-.38-.76-.62-.21-.21-.66-.87-.44-1.18.32-.48,1.55-.14,1.95.06.36.19.7.41,1.02.66.51.39.79.59.77.66-.03.07-.38-.04-.96-.35-.49-.26-1.36-.72-1.92-.56.05.31.49.53.74.68.56.31,1.13.58,1.73.81.32.14.63.25,1,.42.05.03.11.06.16.09l.06.04h.01c.31-.02.63,0,.93.07-.19-.18-.35-.39-.48-.63-.09-.17-.14-.36-.15-.56-.01-.12,0-.19.03-.2.03-.01.08.05.14.15.08.15.17.29.28.41.41.45.92.79,1.49,1,.88.32,1.78.56,2.71.71.13.03.27.05.41.07.14.03.29.07.43.1.31.09.61.2.9.35.67.28,1.21.8,1.52,1.46.19.47.18.99-.01,1.46-.11.26-.25.5-.44.72.29.3.49.67.59,1.08.1.53,0,1.08-.28,1.53-.47.76-.91,1.29-1.17,1.81-.08.14-.14.29-.19.44.2,1.11.28,2.25.24,3.38-.06,1.12-.26,2.22-.59,3.29.06-.01.13-.03.19-.05.25-.09.48-.22.69-.37.44-.3.83-.67,1.16-1.1.1-.14.14-.31.13-.49-.01-.21-.07-.42-.16-.61-.13-.26-.26-.51-.38-.77-.15-.31-.27-.64-.35-.98-.09-.43-.05-.87.13-1.27.16-.32.39-.61.65-.85.42-.4.81-.73,1.1-1.06.22-.24.34-.55.33-.88,0-.07,0-.15-.03-.22,0-.07-.04-.14-.08-.2l-.05-.1-.09-.11-.05-.07-.11-.13-.22-.26-.06-.07s-.04-.04-.01-.07l.11-.13c.13-.17.28-.35.41-.54.03-.05.06-.1.07-.16,0-.02.01-.05.02-.07v-.07Zm5.94,73.84c1.21-.15.34-1.53-.17-1.95-.61-.48-1.13-1.07-1.76-1.52v.02c-.34,2.1-.97,4.14-1.88,6.06.08.1.19.17.3.23.25.1.53.15.7-.12l.03-.08v-.02s0-.03.01-.04c.02-.03.03-.07.04-.1.01-.05.02-.1.04-.15,0-.06.02-.12.02-.17.04-.22.04-.45.06-.64.08-.86.44-.51.95-.28.89.4.64-.97.45-1.51-.07-.19-.15-.33-.2-.43-.09-.11-.15-.2-.12-.26.03-.07.12-.1.28-.09.25.07.48.21.64.42.17.21.3.46.38.72.07-.04.14-.06.22-.07Zm-2.88-31.13c-.43-1.53-.7-3.1-1.07-4.64-.27,1.56-.52,3.29-.9,4.98.65-.15,1.31-.26,1.97-.34Zm-5.98-43.91c.46-.36.67-.97.53-1.54-.24-.45-.62-.81-1.09-1.01-.23-.12-.47-.22-.72-.3-.13-.04-.26-.07-.39-.11-.13-.04-.27-.06-.4-.09l-.13-.04c.73.44,1.25,1.16,1.45,2,.34,1.71.26,3.45.47,5.17.23-.49.56-1.01.84-1.53.16-.3.21-.65.14-.99-.13-.36-.36-.68-.67-.92l-.35-.3.32-.35Zm1.17,54.65s-.01-.1-.03-.14c0-.01,0,0,0-.02.01,0,0-.01-.01-.03-.02.02-.03.05-.04.07-.07.11-.13.27-.22.41-.17.25-.31.46-.48.67-.21.28-.47.53-.75.73-.15.13-.31.25-.48.35.05.01.09.02.14.04.24.03.48.02.72-.04.12-.03.23-.08.34-.14.03-.03.07-.05.11-.07.05-.05.1-.11.15-.16v-.02s.04-.04.04-.04l.06-.1c.04-.07.07-.14.11-.21.07-.15.14-.3.19-.45.11-.27.16-.56.16-.85Zm-.46,4.45c-.09-.04-.18-.1-.25-.17-.14-.15-.08-.15-.23-.04-.22.14-.42.31-.63.46-.28.23-.6.42-.94.56.3,1.02.6,2.05.98,3.04.36-1.28.72-2.57,1.07-3.84h0Zm-1.33-1.58c-.09-.01-.17-.03-.26-.05-.08-.02-.16-.06-.24-.09l-.06-.02-.04-.02h-.02s-.09-.06-.09-.06c-.04-.02-.08-.05-.11-.08-.05-.04-.09-.08-.13-.12-.02-.03-.03-.05-.05-.07h-.02c-.26.03-.52-.04-.74-.18-.06-.03-.11-.07-.16-.12.15.27.28.55.4.83.11.28.21.56.31.84.18-.1.34-.22.5-.35.23-.18.47-.34.71-.49h0Zm-.86-4.52v-.04c-.22.1-.57.33-.87.52-.4.23-.75.54-1.01.92-.1.17-.15.37-.15.56,0,.04,0,.09,0,.13l.04.19s0,.04.01.06c.1.12.2.24.3.37.06,0,.13-.02.19-.04.04-.02.07-.05.1-.07h0c.04-.2.11-.38.21-.55.04-.07.09-.14.15-.21l.16-.17c.13-.14.26-.27.41-.4.15-.22.27-.45.36-.7.07-.18.11-.37.12-.57h0Zm.67,11.62s-.08-.1-.11-.15c-.74-1.73-1.35-3.51-1.83-5.32-.4-1.24-1.03-2.39-1.87-3.39-.75-.95-1.44-1.93-2.08-2.96-.28-.4-.6-.77-.96-1.11-.15-.15-.96-1.17-1.13-1.16-2.07.31-6.59-.09-7,2.6-.14.99-.15,2.39-.74,3.3.31,2.04,3.42,2.95,5.3,3.38-.54-.8-.81-1.47-.65-1.59.2-.16.97.56,1.74,1.56.73.94,1.37,1.8,1.19,1.98-.09.09-.41-.04-.81-.34,1.05,3.26,1.79,6.33,3.97,9.17.09.11.15.25.16.39.06.11.09.23.1.35.05.74.15,1.47.29,2.19,1.09-1.66,2.24-3.26,3.48-4.82.27-1.35.6-2.71.96-4.08h0Zm-1.64-12.95c0-.24-.11-.47-.3-.62-.05-.03-.1-.07-.15-.1l-.08-.03-.04-.02h-.01c-.09-.01-.19-.03-.27-.04-.03.02-.06.03-.1.03-.26.12-.49.32-.65.56-.19.28-.35.57-.48.88,0,.01-.01.02,0,.02,0,.04,0,.08-.02.13-.02.18-.06.39-.09.63-.03.24-.02.55.06.55.06,0,.11-.01.16-.03.15-.05.29-.12.44-.19.02-.01.04-.02.06-.04.07-.08.15-.15.22-.22.18-.14.36-.27.55-.38.02-.01.04-.02.06-.04.13-.14.27-.28.39-.44l.11-.17.04-.06v-.03s.03-.06.03-.06c.05-.1.08-.22.07-.33h0Zm-12.14-63.23c-.09,0-.17,0-.26.02-.88.11-1.74.32-2.57.65-.49.19-.96.43-1.39.72-.46.3-.86.69-1.17,1.15-.3.54-.49,1.14-.56,1.76-.13.62-.05,1.27.21,1.84.03.05.07.1.11.14.11.11.24.19.39.24-.39-.64-.42-1.43-.08-2.1.11-.27.24-.52.4-.76.26-.37.55-.7.88-1.01.53-.51.84-.82.95-.76.11.07-.04.53-.46,1.16-.2.31-.47.66-.67,1.05-.11.19-.2.4-.27.61-.06.22-.1.45-.1.68-.06.39.08.78.39,1.03.3.23.64.4,1,.5.66.2,1.12.3,1.12.43,0,.1-.33.22-.91.21.13.13.28.26.42.41.14.14.3.32.45.5.72-.41,1.48-.73,2.28-.96-.39-.17-.77-.37-1.13-.59l-.33-.23-.3-.28c-.18-.19-.34-.39-.49-.6-.13-.22-.24-.46-.34-.7-.08-.24-.14-.48-.17-.73-.11-.92.1-1.84.59-2.62.43-.67,1.01-1.22,1.7-1.61.1-.06.21-.1.31-.15Zm4.57,60.62c-.33-.43-.66-.86-.96-1.31-.08.08-.17.15-.27.19-1.92.82-4.16.21-5.58,2.18-.94,1.38-1.21,3.1-.74,4.7.18-.8.15-1.92.28-2.33.25-.87.8-1.61,1.55-2.1,1.76-1.1,3.75-1.12,5.72-1.33Zm-1.8-2.63c-.77-1.29-1.44-2.63-2.02-4.01-.47-.95-1.09-1.82-1.84-2.56-.09,1.56-.45,3.09-.55,4.66,0,.14-.06.28-.14.4-.44,1.01-.69,2.1-.73,3.21.37-.3.78-.55,1.22-.75,1.32-.57,2.78-.39,4.06-.93Zm-6.08-48.69c-.09-.11-.2-.22-.3-.33-.31-.32-.66-.64-.99-.96l-.17-.14h0c-.09.03-.18.06-.28.07-.12.02-.25.01-.37,0-.1-.02-.19-.04-.29-.07-.09-.03-.14-.06-.21-.09-.08-.04-.16-.08-.24-.13-.1.37-.28.71-.54.99-.59.62-1.35.86-1.74,1.27-.42.59-.63,1.31-.58,2.03-.01.46.03.92.13,1.36.06.36.22.69.45.96.02-.02.05-.04.07-.05.15-.11.29-.21.44-.31.27-.2.52-.36.71-.53.33-.26.61-.57.84-.92.37-.56.53-.84.63-.8.05.02.07.1.06.28-.03.27-.09.53-.19.78-.17.47-.43.9-.78,1.26-.22.24-.45.46-.7.67-.13.11-.25.22-.4.35-.07.05-.14.12-.2.18l-.16.18c-.49.58-.67,1.36-.48,2.1.02.11.05.21.08.32.04.1.08.2.12.31.12.2.26.38.43.55.27.28.49.6.65.95.15.44.17.91.05,1.36-.1.39-.25.72-.3.97-.02.13-.02.27-.04.4,0,.14.02.29.03.44.1.65.38,1.27.8,1.78.44.57,1.03.99,1.71,1.22.37.11.77.11,1.14.02-.53-.65-.96-1.38-1.25-2.16-.18-.52-.32-1.06-.41-1.61-.08.32-.14.63-.18.96-.07.55-.06.99-.19,1.01-.11,0-.34-.3-.45-.99-.07-.85.02-1.7.27-2.52l.04-.14.03-.17c.02-.11.05-.23.07-.33.02-.11.05-.22.08-.32,0-.09,0-.18.01-.27.01-.06.02-.12.02-.19,0-.11-.01-.22-.02-.33-1.32-1.23-.77-3.75.59-4.85-.09-1.75.66-3.44,2.01-4.56Zm.51,43.21c0-.07,0-.14,0-.21-.03-.17-.06-.35-.07-.52-.04-.2-.15-.45-.21-.68l-.03-.06v-.04s-.06-.15-.06-.15c-.05-.1-.09-.2-.15-.3h0c-.11-.2-.24-.4-.37-.59-1.04-1.35-2.27-2.54-3.66-3.52-1.07-.83-1.73-1.41-1.63-1.59.1-.18.93.08,2.18.71.64.33,1.26.71,1.84,1.13-.65-.95-1.25-1.95-1.8-2.97-.24-.46-.45-.94-.62-1.43-.05.13-.12.26-.19.37l-.05.07-.02.03v.02s-.04.05-.04.05l-.16.17c-.23.25-.53.44-.86.54-.63.15-1.29.11-1.89-.13-.27-.09-.53-.18-.77-.27-.02.05-.03.1-.06.15-.06.11-.13.21-.22.31-.09.1-.2.19-.32.26-.12.06-.24.11-.37.14-.38.07-.78.02-1.13-.14-.22-.1-.44-.22-.64-.35-.13.19-.3.36-.5.49-.3.18-.65.24-.99.17-.25-.05-.49-.15-.71-.3-.56-.41-1.03-.94-1.35-1.56-.54-.97-.58-1.67-.43-1.7.15-.03.45.47,1.12,1.2.35.42.78.77,1.25,1.04.09.05.2.09.3.09.04,0,.09-.01.12-.04.15-.2.25-.43.29-.68l.25-1.14.9.83c.27.25.58.46.92.6.07.04.15.06.24.06,0-.01.03-.17.03-.17l.02-.21.05-.92.83.2c.55.16,1.1.36,1.63.59.34.16.72.22,1.1.19.13-.02.25-.08.35-.18l.07-.05h0s.01-.02.01-.02h0s0,0,0,0l.03-.03.05-.06c.04-.05.07-.1.1-.16.15-.3.24-.63.28-.96.03-.24.05-.45.07-.66-.23.26-.51.48-.82.63-.52.25-1.11.33-1.68.23-.84-.2-1.6-.67-2.15-1.35-.05.04-.11.07-.16.1-.25.12-.52.18-.79.17-.13,0-.27-.02-.4-.05-.09-.02-.19-.04-.27-.08l-.06-.02h-.03s-.11-.06-.11-.06c-.01,0-.16-.09-.16-.09-.1-.06-.19-.12-.27-.2-.16-.14-.31-.29-.43-.46-.2-.29-.36-.6-.49-.92-.09-.22-.18-.43-.27-.6-.22.18-.47.31-.74.4-.3.09-.62.11-.93.06-.06,0-.13-.02-.19-.04l-.14-.05h-.03s-.11-.05-.11-.05h-.02s-.09-.06-.09-.06l-.17-.1c-.38-.28-.66-.67-.81-1.12-.12-.33-.18-.67-.21-1.02-.03-.46-.01-.92.06-1.37.05-.3.11-.48.19-.48.07,0,.17.15.25.45.09.31.18.75.32,1.25.1.53.39,1,.82,1.32l.08.04.17.03c.06.01.11.03.11.01.1-.02.2-.04.3-.08.23-.09.41-.28.5-.51l.24-.81.75.45c.34.21.61.51.8.86.17.3.29.58.41.83.47,1.01.82,1.15,1.47.35.77-.94,1.23.84,1.82,1.36.28.28.62.49,1,.61.32.08.66.07.98-.03.3-.1.57-.27.79-.49.02-.02.03-.04.06-.06-.19-.04-.38-.08-.59-.14-.15-.05-.3-.1-.45-.16l-.23-.08-.18-.09c-.11-.07-.23-.13-.35-.19l-.04-.02-.05-.03h0s-.01,0-.02-.01l-.02-.02-.1-.08-.2-.17c-.56-.49-.94-1.15-1.11-1.87-.06-.24-.11-.47-.15-.69-.26.07-.54.08-.81.03-.46-.11-.87-.4-1.12-.8-.18-.28-.31-.58-.4-.9-.17-.61-.27-1.24-.32-1.87l-.03-.41c-.3.12-.62.2-.95.24-.81.12-1.63-.12-2.26-.65-.14-.13-.27-.27-.38-.42-.09-.16-.19-.31-.28-.46-.13-.29-.22-.6-.27-.92-.07-.53-.04-1.07.1-1.59.19-.7.56-1.34,1.07-1.86.36-.3.59-.42.67-.36.08.06,0,.33-.21.73-.07.22-.17.44-.25.72-.04.14-.08.29-.12.46-.02.16-.05.33-.07.52-.03.38,0,.75.11,1.12.05.18.13.36.22.53.06.07.12.14.17.21.05.07.14.11.2.17.32.2.7.27,1.06.17.51-.12.99-.35,1.41-.66l.92-.56.37.95c.08.2.13.4.15.61.03.16.04.3.06.44.03.27.06.55.09.82.05.51.14,1.02.28,1.52.04.15.1.3.18.43,0,0,.01.02.02.03.03,0,.05-.02.08-.03.14-.07.28-.15.4-.25l1.12-.82.3,1.29c.17.73.19,1.37.3,1.87.06.42.25.81.53,1.12l.18.18.33.22.16.11.13.05c.08.04.17.07.25.11.14.06.3.12.46.17,0-2.71.8-5.36,2.33-7.6-1.94-.65-3.56-2.02-4.52-3.84-1.13-1.85-3.19-5.24-5.85-4.67-3.97.86-5.42,7.76-6,11.05-1,5.63.26,10.6,3.52,15.39,3.86,5.65,9.16,10.01,14.15,14.6.15-.55.69-1.23.67-1.8-.01-.14-.05-.27-.11-.4-.2-.35-.44-.68-.71-.98,0,0-.26-.32-.26-.32-.17-.21-.34-.42-.51-.64-.19-.19-.38-.38-.56-.56-.09-.09-.18-.19-.28-.28l-.32-.27c-.21-.18-.41-.35-.62-.52-.21-.17-.44-.36-.65-.53-.21-.18-.42-.35-.63-.53l-.59-.54c-1.36-1.27-2.62-2.64-3.77-4.1-1.94-2.49-2.98-4.13-2.83-4.25.16-.14,1.49,1.29,3.6,3.57,1.22,1.33,2.52,2.59,3.87,3.79.19.17.39.33.58.5.21.16.41.32.62.48.21.16.42.33.63.49.22.18.45.36.67.55.47.39.91.8,1.33,1.24.04.05.08.1.12.15-.05-.19-.12-.38-.19-.56-.42-.87-.97-1.68-1.62-2.39-.63-.72-1.29-1.38-1.88-2.06-.58-.66-1.11-1.27-1.6-1.84-1.95-2.25-3.08-3.7-2.94-3.84.14-.14,1.53,1.07,3.67,3.15.53.53,1.11,1.1,1.73,1.72.6.61,1.3,1.25,2,1.99.47.5.91,1.03,1.29,1.6-.42-1.3-1.04-2.52-1.83-3.63-1.24-1.59-2.57-3.11-3.99-4.55-1.09-1.18-1.63-2.01-1.5-2.16.14-.15.96.43,2.2,1.4,1.69,1.27,3.2,2.78,4.48,4.47.61.85,1.1,1.79,1.46,2.78.07-.48.14-.95.2-1.43h0Z"/>
            <path class="cls-2" d="m64.7,56.85h.01c.06-.04.11-.09.14-.15.14-.23.25-.48.3-.74l.43-1.95.88,1.75c.09.19.2.38.31.57,0,.02.02.04.04.06.05-.03.09-.06.13-.09l.05-.04s.01,0,.02-.01v-.02s.13-.12.13-.12c.1-.09.09-.11.14-.16.29-.54.4-1.16.32-1.76-.03-.59-.11-1.08-.12-1.43-.01-.35.01-.56.1-.58.08-.02.21.13.37.44.23.45.41.93.54,1.43.1.37.15.74.16,1.12.02.5-.1,1-.34,1.44-.07.12-.15.24-.24.36l-.11.13-.02.03-.05.06-.07.07c-.11.11-.22.21-.35.29-.18.12-.39.21-.6.24-.28.03-.56-.05-.79-.22,0,0-.02-.02-.02-.02-.17.26-.4.47-.66.62-.16.09-.34.14-.53.16-.11,0-.22,0-.33,0l-.17-.03c-.46-.11-.85-.39-1.1-.79-.17-.27-.31-.57-.41-.87-.04-.12-.08-.23-.12-.34-.06.06-.13.12-.21.18-.13.11-.27.19-.42.25-.2.08-.42.1-.64.05-.34-.09-.63-.32-.79-.64-.19-.36-.31-.75-.37-1.15-.05-.31-.09-.62-.1-.93-.05-1.12.07-1.75.22-1.77.15-.01.33.62.61,1.64.07.25.15.53.25.81.09.27.21.53.37.77,0,0,.01.02.02.03.01-.01.04-.03.06-.05.23-.26.43-.55.58-.87l.46-.87.65.76c.21.26.38.55.49.86.09.24.19.49.28.73.07.2.17.4.29.58.1.16.16.18.18.18l.07.02Z"/>
            <path class="cls-2" d="m56.65,33.01v.03s0,0,0,0c0,0,0-.02,0-.02Z"/>
            <path class="cls-2" d="m48.46,43.68c.07.16-.44.6-1.38,1.16-.24.13-.51.28-.79.44-.28.15-.65.27-1,.41-.18.06-.37.15-.55.2-.59.18-1.2.31-1.81.36-.84.07-1.68-.03-2.48-.29-.63-.2-1.24-.48-1.81-.83-.95-.58-1.44-1.06-1.36-1.21.07-.15.75.04,1.74.38,1.76.63,3.66.76,5.49.39.17-.04.33-.09.48-.13.32-.1.62-.16.9-.26.29-.11.57-.19.82-.27,1.01-.34,1.68-.5,1.75-.34Z"/>
            <path class="cls-2" d="m45.31,36.41c.04.19.04.38,0,.57-.1.24-.22.38-.35.37-.12,0-.22-.16-.29-.41-.09-.2-.21-.38-.35-.55-.22-.23-.41-.49-.55-.78-.09-.27-.08-.46.02-.53.11-.06.28,0,.47.12.28.16.53.36.74.6.07.1.14.19.19.29.04.1.08.21.11.32Z"/>
            <path class="cls-2" d="m42.38,34.02c.02.35-.04.7-.19,1.02-.14.33-.35.65-.47.94-.53.92-.01.83.59,1.26.14.1.18.2.14.25-.03.06-.12.08-.25.09-.13.02-.3.04-.56.06-.19.02-.37,0-.55-.08-.14-.06-.26-.17-.33-.31-.07-.12-.1-.25-.11-.39-.01-.12-.01-.24,0-.36,0-.09.02-.19.05-.28.05-.21.11-.42.21-.62.16-.33.35-.64.55-.95.13-.2.23-.43.29-.66.03-.09.05-.18.07-.28,0-.09,0-.18.02-.27.02-.15.06-.24.12-.26.06-.02.13.05.22.18.05.07.09.15.13.23.04.13.07.27.08.41Z"/>
            <path class="cls-2" d="m37.78,50.18c1.64.03,2.97.26,2.97.51,0,.25-1.34.43-2.97.4-1.63-.03-2.95-.25-2.96-.51,0-.25,1.32-.43,2.96-.4Z"/>
          </g>
          <path id="accents" class="cls-2" d="m17.69,72.5l-.43.26.43-.26Zm13,13.5l.49.1.06-.29-.22-.19-.32.38Zm7.5,8.5l.47-.16-.1-.3-.32-.04-.06.5Zm3.5,7.5l.46-.19-.07-.18-.17-.08-.22.45Zm1,4l.32.38.18-.15v-.23h-.5Zm-1,5.5l-.42.28.42-.28ZM25.69,31.5l.47.16-.47-.16Zm-9.45,31.97c.12-.25.02-.55-.22-.67-.25-.12-.55-.02-.67.22l.89.45Zm-2.2,2.47c-.1.26.03.55.29.64.26.1.55-.03.64-.29l-.94-.35Zm3.46.45c.15-.23.09-.54-.15-.69-.23-.15-.54-.09-.69.15l.84.55Zm-1.41,1.21l.47.16-.47-.16Zm-.76.7c-.1.26.02.55.28.65.26.1.55-.02.65-.28l-.93-.37Zm3.83.23c.02-.28-.18-.52-.46-.54-.28-.02-.52.18-.54.46l1,.08Zm-2.28,2.84c-.05.27.14.53.41.58.27.05.53-.14.58-.41l-.99-.16Zm3.9-.58c.13-.25.03-.55-.22-.67-.25-.13-.55-.03-.67.22l.89.46Zm-2.54,2.55c-.16.23-.1.54.12.7.23.16.54.1.7-.12l-.82-.57Zm3.93-.6c.11-.25,0-.55-.26-.66-.25-.11-.55,0-.66.26l.92.39Zm-2.44,3.07c0,.28.22.5.5.5s.5-.22.5-.5h-1Zm3.36-1.78c.05-.27-.12-.53-.39-.59-.27-.05-.53.12-.59.39l.98.2Zm-1.37,2.75l.45.22-.45-.22Zm-.61.71c0,.28.22.5.5.5s.5-.22.5-.5h-1Zm3.74-1.82c.08-.26-.06-.54-.32-.63-.26-.08-.54.06-.63.32l.95.31Zm-2.06,2.81c-.17.22-.12.53.1.7.22.17.53.12.7-.1l-.8-.6Zm4.08-1.01c.15-.23.08-.54-.15-.69-.23-.15-.54-.08-.69.15l.84.54Zm-2.57,2.93c-.09.26.05.55.32.63.26.09.55-.05.63-.32l-.95-.32Zm3.88-.89c.24-.13.33-.44.19-.68-.13-.24-.44-.33-.68-.19l.49.87Zm-.93,1.12l-.46-.21.46.21Zm-1.17,1.35c-.09.26.05.55.32.63.26.09.55-.05.63-.32l-.95-.32Zm4.13-1.56c.03-.27-.16-.52-.44-.55-.27-.03-.52.16-.56.44l.99.12Zm-2.17,3.38c-.07.27.1.54.36.61.27.07.54-.1.61-.36l-.97-.24Zm3.61-1.36c.11-.25,0-.55-.25-.66s-.55,0-.66.25l.91.4Zm-2.41,2.41c-.09.26.05.55.32.63.26.09.55-.05.63-.32l-.95-.32Zm1.06,2.53c0,.28.22.5.5.5s.5-.22.5-.5h-1Zm1.15-1.88l.44.24-.44-.24Zm.72-1.23l-.48-.13.48.13Zm.66-.22c.24-.14.31-.45.17-.69-.14-.24-.45-.31-.69-.17l.51.86Zm1.18,2.27c.12-.25.02-.55-.22-.67-.25-.12-.55-.02-.67.22l.89.45Zm-2.03,2.98l-.49-.09.49.09Zm-.3.7l.48.15h0l-.48-.15Zm0,0l-.48-.15h0s.48.15.48.15Zm.3.35c0-.28-.22-.5-.5-.5s-.5.22-.5.5h1Zm3.14-2.11c.09-.26-.05-.55-.31-.64-.26-.09-.55.05-.64.31l.94.33Zm-2.1,2.8l.43.26-.43-.26Zm.1.37c-.12-.25-.42-.35-.67-.22-.25.12-.35.42-.22.67l.89-.45Zm3.4-1.72c.08-.27-.08-.54-.34-.62-.27-.08-.54.08-.62.34l.96.27Zm-2.12,2.82c-.11.25,0,.55.25.66.25.11.55,0,.66-.25l-.91-.41Zm4.51-1.41c.04-.27-.15-.53-.42-.57-.27-.04-.53.15-.57.42l.99.14Zm-1.79,2.9c0,.28.22.5.5.5s.5-.22.5-.5h-1Zm4.44-1.21c.26-.1.39-.39.29-.65-.1-.26-.39-.39-.65-.29l.36.93Zm-3.28,1.56c-.14.24-.05.55.19.68.24.14.55.05.68-.19l-.87-.5Zm3.69-.03c.18-.21.15-.53-.07-.7-.21-.18-.53-.15-.7.07l.77.64Zm-1.97,2.2l.45.21-.45-.21Zm-.25,1.18l.48.15-.48-.15Zm-.73.46c-.05.27.12.53.39.59.27.05.53-.12.59-.39l-.98-.2Zm4.26-1.29c.16-.22.11-.54-.11-.7-.22-.16-.54-.11-.7.11l.81.58Zm-3.26,3.94c-.07.27.1.54.36.61.27.07.54-.1.61-.36l-.97-.24Zm4.28-.99c.21-.18.23-.5.04-.71-.18-.21-.5-.23-.71-.04l.66.75Zm-1.9,2.02l-.43-.26.43.26Zm-.86.45c-.12.25-.02.55.22.67.25.12.55.02.67-.22l-.89-.45Zm3.78-.42c.19-.2.18-.52-.02-.71-.2-.19-.52-.18-.71.02l.73.68Zm-2.43,2.02l-.42-.27.42.27Zm-.56-.05c-.2.2-.2.51,0,.71.2.2.51.2.71,0l-.71-.71Zm-1.43,4.2c-.17.22-.13.53.09.7.22.17.53.13.7-.09l-.79-.61Zm3.72-2.92l-.33-.38.33.38Zm1.48-.65c.26-.09.4-.37.32-.63-.09-.26-.37-.4-.63-.32l.32.95Zm-2.23,5.56c.22-.17.26-.48.09-.7-.17-.22-.48-.26-.7-.09l.61.79Zm-2.36,1.13c-.09.26.05.55.32.63.26.09.55-.05.63-.32l-.95-.32Zm2.97,1.71c.15-.23.08-.54-.15-.69-.23-.15-.54-.08-.69.15l.84.54Zm-1.73.84c-.15.23-.08.54.15.69.23.15.54.08.69-.15l-.84-.54Zm3.95-.13c.11-.25-.01-.55-.27-.65-.25-.11-.55.01-.65.27l.92.38Zm-1.33.74c-.09.26.05.55.32.63.26.09.55-.05.63-.32l-.95-.32Zm3.89-.42c.12-.25,0-.55-.24-.66-.25-.12-.55,0-.66.24l.91.42Zm-1.61,1.18c-.11.26.02.55.27.65.26.11.55-.02.65-.27l-.92-.38Zm3.88-1.18c.12-.25,0-.55-.25-.66-.25-.12-.55,0-.66.25l.91.42Zm-1.65,1.57c0,.28.22.5.5.5s.5-.22.5-.5h-1Zm-16.64-68.44c.26-.09.4-.37.32-.63-.09-.26-.37-.4-.63-.32l.32.95Zm-.66.37l-.48-.14.48.14Zm.21.44c0-.28-.22-.5-.5-.5s-.5.22-.5.5h1Zm-1.56-2.21c.15-.23.08-.54-.16-.69-.23-.15-.54-.08-.69.16l.85.53Zm-1.81.82c-.22.17-.27.48-.1.7.17.22.48.27.7.1l-.6-.8Zm.69-2.65c.17-.22.13-.53-.09-.7-.22-.17-.53-.13-.7.09l.79.61Zm-1.28,1.17l.44.24-.44-.24Zm.48-.08c.06-.27-.11-.54-.38-.6-.27-.06-.54.11-.6.38l.98.22Zm-2.1-2.53c-.25.12-.35.42-.22.67.12.25.42.35.67.22l-.45-.89Zm1.39-.46l.26.43h0l-.26-.43Zm1.29-.16c.23-.15.29-.46.14-.69-.15-.23-.46-.29-.69-.14l.55.83Zm-3.83-.7c-.05.27.13.53.4.58.27.05.53-.13.58-.4l-.98-.18Zm2.25-1.47l.29.4-.29-.4Zm1.23-.46c.25-.12.35-.42.22-.67-.12-.25-.42-.35-.67-.22l.45.89Zm-3.17-2.25c-.23.15-.29.46-.14.69.15.23.46.29.69.14l-.56-.83Zm2.55-.56c.17-.22.14-.53-.08-.7-.22-.17-.53-.14-.7.08l.78.62Zm-3.31-1.36c-.2.19-.2.51,0,.71.19.2.51.2.71,0l-.7-.72Zm.36.35l.35.36h0l-.35-.36Zm2.58-1.28c.27-.07.43-.34.36-.61-.07-.27-.34-.43-.61-.36l.24.97Zm-3.46-1.8c-.23.15-.3.46-.15.69.15.23.46.3.69.15l-.54-.84Zm3.12-.75c.23-.15.29-.46.14-.69-.15-.23-.46-.29-.69-.14l.55.83Zm-2.43-1.58c-.26.09-.39.38-.3.64.09.26.38.39.64.3l-.34-.94Zm2.23.07c.27-.05.46-.3.41-.58-.05-.27-.3-.46-.58-.41l.16.99Zm-1.15-2.57c-.27.05-.46.3-.41.58s.3.46.58.41l-.16-.99Zm3.84-.19c.28,0,.5-.22.5-.5s-.22-.5-.5-.5v1Zm-1.68-3.97c-.28,0-.5.22-.5.5s.22.5.5.5v-1Zm1.68,1c.28,0,.5-.22.5-.5s-.22-.5-.5-.5v1Zm-16.02,26.18c-1.76,6.79-1.9,11.12-1.19,14.42.71,3.29,2.27,5.5,3.75,7.96l.86-.51c-1.52-2.53-2.96-4.57-3.63-7.66-.66-3.08-.56-7.25,1.18-13.96l-.97-.25Zm2.56,22.38c1.24,2.06,3.69,4.76,6.23,7.28,2.54,2.53,5.2,4.92,6.88,6.34l.65-.76c-1.66-1.41-4.3-3.78-6.82-6.29-2.53-2.52-4.91-5.15-6.07-7.09l-.86.51Zm12.94,13.14c-.27,1.35-.19,3.4.93,5.24,1.13,1.87,3.28,3.44,7.01,3.85l.11-.99c-3.47-.39-5.32-1.82-6.27-3.37-.96-1.58-1.03-3.38-.8-4.53l-.98-.2Zm7.52,8.76c.37,1.11.65,2.08.89,2.91.24.83.45,1.55.68,2.17.46,1.25,1.02,2.13,2.18,2.71l.45-.89c-.84-.42-1.28-1.04-1.69-2.16-.21-.57-.41-1.26-.65-2.1-.24-.84-.53-1.81-.9-2.95l-.95.32Zm3.51,7.53c.78,1.96.96,3.39.96,3.81h1c0-.58-.22-2.14-1.04-4.19l-.93.37Zm1.14,3.43c-.56.46-1.27,1.31-1.63,2.39-.37,1.1-.36,2.43.53,3.77l.83-.55c-.7-1.05-.7-2.06-.42-2.9.29-.87.88-1.57,1.32-1.94l-.64-.77Zm-1.1,6.16c.49.73.76,1.24.93,1.61.09.19.16.34.22.48.06.14.13.28.22.4.19.29.44.47.8.63.34.15.84.32,1.58.57l.32-.95c-.76-.25-1.2-.4-1.48-.53-.26-.12-.33-.19-.38-.27-.04-.06-.08-.14-.14-.27-.06-.12-.13-.3-.23-.5-.2-.41-.49-.96-1-1.73l-.83.55Zm3.76,3.7c.71.24,1.54.57,2.38.78.85.22,1.77.35,2.74.17,1.97-.35,3.95-1.89,5.98-5.69l-.88-.47c-1.97,3.69-3.74,4.91-5.27,5.18-.78.14-1.54.04-2.32-.16-.79-.21-1.52-.5-2.31-.76l-.32.95Zm-15.46-69.29c-1.24-1.49-1.94-2.56-2.28-3.59-.34-1.02-.35-2.05-.11-3.51l-.99-.16c-.26,1.54-.27,2.76.14,3.99.41,1.22,1.21,2.4,2.47,3.91l.77-.64Zm-2.39-7.1c.28-1.66-.29-2.91-.71-4.01-.43-1.1-.75-2.09-.3-3.41l-.95-.32c-.56,1.68-.12,2.94.32,4.09.45,1.15.88,2.14.66,3.49l.99.16Zm-1.02-7.42c.26-.77.42-1.37.54-1.87.13-.51.21-.86.33-1.18.21-.57.5-.99,1.46-1.71l-.6-.8c-1.05.79-1.5,1.36-1.79,2.17-.14.37-.24.8-.36,1.27-.12.49-.28,1.07-.52,1.8l.95.32Zm2.33-4.76c.65-.49.85-1.11.91-1.72.03-.29.03-.59.04-.86,0-.28.02-.55.06-.81.08-.5.27-1.01.8-1.5.54-.51,1.46-1.05,3.04-1.53l-.29-.96c-1.66.51-2.74,1.1-3.44,1.76-.71.67-.99,1.39-1.1,2.07-.05.33-.06.65-.07.94,0,.3,0,.55-.03.78-.05.44-.16.76-.51,1.02l.6.8Zm-13.14,36.12c-.47.95-.93,1.92-1.31,2.92l.94.35c.35-.95.8-1.88,1.26-2.82l-.89-.45Zm1.31,2.82c-.16.24-.32.41-.52.68-.19.25-.4.54-.53.92l.95.32c.07-.22.2-.41.36-.62.15-.19.39-.46.58-.75l-.84-.55Zm-1.05,1.6c-.12.35-.17.59-.28.86l.93.37c.12-.3.22-.67.3-.92l-.95-.32Zm2.55,1.01c-.04.45-.25.82-.54,1.28-.27.43-.63.97-.74,1.64l.99.16c.07-.43.3-.79.61-1.28.28-.45.62-1.01.68-1.73l-1-.08Zm1.73,1.89c-.55,1.07-1.01,2.09-1.65,3.01l.82.57c.69-.99,1.2-2.12,1.72-3.12l-.89-.46Zm1.37,2.01c-.21.49-.53.93-.88,1.52-.32.55-.64,1.2-.64,1.94h1c0-.46.2-.91.5-1.43.28-.48.7-1.07.94-1.63l-.92-.39Zm.86,1.48c-.2.97-.42,1.9-.84,2.73l.89.45c.48-.96.72-2,.92-2.98l-.98-.2Zm-.84,2.73c-.18.36-.16.71-.16.93h1c0-.28,0-.38.06-.49l-.89-.45Zm2.63-1.2c-.08.26-.16.55-.24.83-.08.29-.15.58-.24.86-.17.58-.37,1.07-.63,1.42l.8.6c.37-.49.61-1.13.79-1.73.09-.3.17-.61.25-.89.08-.29.15-.55.22-.79l-.95-.31Zm2.13,1.56c-.7,1.07-1.32,2.23-1.74,3.48l.95.32c.38-1.14.96-2.22,1.63-3.25l-.84-.54Zm1.66,1.71c-.22.12-.35.33-.42.47-.09.16-.16.35-.22.52-.06.17-.12.35-.16.49-.05.16-.08.25-.11.31l.91.41c.05-.12.1-.27.15-.42.05-.15.1-.31.15-.47.05-.16.11-.29.16-.38.06-.12.08-.1.02-.07l-.49-.87Zm-.9,1.79c-.11.24-.23.47-.36.73-.13.25-.25.53-.35.82l.95.32c.08-.23.18-.45.3-.7.12-.23.26-.5.37-.76l-.91-.41Zm2.43-.13c-.06.55-.26,1.09-.5,1.67-.23.56-.51,1.19-.67,1.83l.97.24c.14-.55.38-1.08.63-1.69.24-.59.49-1.24.57-1.94l-.99-.12Zm1.52,1.73c-.19.43-.46.85-.75,1.31-.28.45-.57.95-.75,1.5l.95.32c.14-.43.38-.84.66-1.29.27-.44.58-.92.81-1.43l-.91-.4Zm.56,5.34c0-.59.22-.98.59-1.64l-.87-.49c-.34.62-.71,1.23-.71,2.12h1Zm.59-1.64c.1-.17.21-.32.38-.55.14-.21.31-.48.4-.79l-.97-.26c-.04.14-.12.29-.25.48-.11.17-.3.41-.43.64l.87.49Zm.77-1.34c.03-.12.05-.21.06-.27.01-.07.01-.06,0-.03-.02.04-.04.06-.04.05.02-.01.06-.04.15-.1l-.51-.86c-.18.11-.39.24-.5.47-.05.1-.07.21-.08.26-.01.07-.02.13-.05.21l.97.26Zm.46,1.47c-.24.48-.56.95-.89,1.53-.31.55-.63,1.17-.74,1.81l.99.17c.08-.46.31-.95.62-1.48.29-.5.66-1.08.92-1.58l-.89-.45Zm-1.63,3.34s-.03.1-.09.2c-.05.09-.14.25-.19.43l.95.3c.02-.07.06-.13.13-.27.06-.12.15-.29.19-.5l-.99-.17Zm-.28.63h0s.95.31.95.31h0s-.95-.31-.95-.31Zm0,0c-.02.05-.06.19-.09.27,0,.02-.01.03-.01.03,0,0,0-.01.02-.03,0,0,.04-.05.09-.09.04-.03.21-.15.44-.08.22.06.29.24.31.28.04.09.03.16.03.12h-1s0,.14.04.25c.02.05.1.23.33.3.23.07.41-.05.46-.09.1-.08.15-.18.16-.2.02-.04.04-.08.05-.11.06-.13.11-.31.12-.35l-.95-.3Zm2.97-1.94c-.34.99-.98,1.88-1.58,2.87l.85.52c.55-.91,1.28-1.94,1.67-3.06l-.94-.33Zm-1.58,2.87c-.03.05-.06.11-.07.15-.02.04-.03.09-.05.13-.03.09-.06.16-.08.23-.01.03-.02.05-.03.07,0,.02,0,0,.03-.03.01-.01.15-.17.4-.13.24.04.32.22.33.23l-.89.45c.03.06.15.27.41.31.28.04.45-.13.49-.18.1-.11.16-.27.19-.33.04-.09.07-.2.1-.27.04-.1.04-.11.03-.09l-.85-.52Zm2.96-1.36c-.29,1.03-.72,2.1-1.16,3.1l.91.41c.45-1.02.9-2.14,1.21-3.23l-.96-.27Zm2.36,1.55c-.06.43-.23.85-.42,1.37-.18.49-.37,1.06-.37,1.67h1c0-.42.13-.83.31-1.32.17-.46.39-1.01.47-1.57l-.99-.14Zm3.28.89c-1.16.45-2.3,1.4-2.92,2.49l.87.5c.51-.89,1.46-1.69,2.41-2.06l-.36-.93Zm0,1.83c-.69.84-1.2,1.65-1.65,2.62l.91.42c.42-.9.88-1.63,1.51-2.41l-.77-.64Zm-1.65,2.62c-.13.27-.17.53-.19.74-.03.22-.04.36-.09.51l.96.29c.08-.25.1-.5.12-.67.02-.18.05-.32.11-.44l-.91-.42Zm-.28,1.25s-.03.08-.09.18c-.05.09-.13.23-.17.43l.98.2s.02-.06.06-.14c.04-.07.12-.2.17-.37l-.96-.29Zm3.19-1.27c-.98,1.36-2.01,2.75-2.45,4.52l.97.24c.39-1.56,1.29-2.78,2.29-4.18l-.81-.58Zm1.16,2.79c-.4.36-.71.82-.96,1.26-.13.22-.25.45-.36.66-.12.21-.22.41-.33.59l.86.52c.12-.21.24-.42.36-.64.12-.22.23-.43.35-.63.24-.41.48-.76.76-1.01l-.66-.75Zm-1.66,2.51c-.06.1-.13.2-.21.32-.07.11-.15.24-.23.39l.89.45c.05-.09.1-.18.17-.29.06-.1.15-.22.22-.35l-.86-.52Zm2.62-.4c-.66.71-1.53,1.51-2.12,2.44l.84.54c.52-.82,1.27-1.5,2.01-2.29l-.73-.68Zm-2.12,2.44s-.04.07-.06.1c-.02.03-.03.05-.04.07-.02.03-.03.04-.04.05l.71.71c.08-.08.14-.16.18-.23.02-.03.04-.06.05-.09.02-.03.03-.05.04-.07l-.84-.54Zm-.78,5.04c.96-1.23,2.04-2.1,3.26-3.15l-.65-.76c-1.18,1.02-2.36,1.96-3.4,3.3l.79.61Zm3.26-3.15c.12-.11.24-.22.34-.33.11-.12.2-.22.31-.32.21-.21.37-.33.5-.37l-.32-.95c-.37.12-.67.39-.9.62-.11.11-.23.24-.32.34-.1.11-.19.2-.27.27l.65.76Zm-1.69,3.74c-.27.21-.64.47-.95.76-.32.3-.64.67-.8,1.16l.95.32c.08-.25.27-.49.53-.74.27-.25.57-.46.88-.7l-.61-.79Zm.38,3.09l-.89,1.38.84.54.89-1.38-.84-.54Zm2.13.87c-.16.38-.29.75-.41,1.12l.95.32c.12-.37.24-.71.38-1.05l-.92-.38Zm2.58.28c-.25.53-.48,1.06-.7,1.6l.92.38c.22-.53.44-1.04.68-1.56l-.91-.42Zm2.27,0c-.05.11-.12.24-.2.39-.08.14-.16.3-.24.47-.15.32-.3.72-.3,1.13h1c0-.18.07-.42.21-.71.07-.14.14-.28.22-.43.07-.14.15-.29.22-.44l-.91-.42Zm-17.7-67.4c-.19.06-.33.2-.4.3-.08.1-.15.22-.2.33-.11.21-.18.43-.22.56l.96.27c.02-.09.08-.25.15-.39.04-.07.07-.12.09-.15.03-.04.01,0-.06.03l-.32-.95Zm-.82,1.18c-.03.09-.09.3-.14.41-.01.03-.02.03-.01.02,0,0,.02-.03.05-.06.02-.02.11-.11.26-.13.21-.03.37.07.45.18.06.08.08.15.08.16,0,.03,0,.04,0-.01h-1c0,.07,0,.16.02.25,0,.04.04.13.11.22.09.11.26.22.48.19.16-.02.27-.12.3-.15.04-.04.07-.09.09-.11.04-.06.06-.12.08-.16.08-.18.16-.45.19-.54l-.96-.27Zm-1.72-2.16c-.17.27-.3.51-.48.78-.17.26-.33.46-.48.57l.6.8c.29-.22.53-.53.72-.81.18-.27.37-.61.5-.8l-.85-.53Zm-1.06-1.92c-.4.51-.66,1.05-.93,1.54l.88.48c.3-.54.5-.97.84-1.4l-.79-.61Zm-.93,1.54c-.06.11-.08.14-.08.14,0,0,0-.01.02-.02,0,0,.03-.03.06-.06.02-.01.05-.04.09-.06.04-.02.13-.06.25-.06.15,0,.28.07.38.17.08.09.1.18.11.22.02.08,0,.14,0,.15,0,.02,0,.04,0,.04,0,.01,0,.02,0,.02,0-.01.08-.22.11-.38l-.98-.22c-.03.12-.06.2-.09.31,0,.01,0,.03-.01.05,0,.01,0,.03,0,.06,0,.01,0,.08,0,.16,0,.04.03.13.11.22.09.11.23.17.38.18.12,0,.21-.04.25-.06.04-.02.07-.05.09-.06.05-.05.09-.1.09-.1.03-.05.08-.13.13-.22l-.88-.48Zm-.73-1.48c.3-.15.53-.36.71-.52.19-.18.33-.31.49-.41l-.53-.85c-.27.17-.48.38-.65.53-.18.16-.31.28-.48.36l.45.89Zm1.2-.93c.15-.09.31-.17.49-.27.17-.09.36-.19.54-.31l-.55-.83c-.13.08-.28.17-.45.26-.17.09-.36.19-.54.3l.53.85Zm-1.82-1.1c0-.05.04-.13.14-.24.09-.11.23-.22.39-.34.16-.12.34-.23.52-.34.17-.11.36-.22.51-.33l-.59-.81c-.11.08-.25.17-.44.28-.18.11-.38.24-.58.38-.19.14-.4.3-.56.49-.17.19-.32.43-.37.72l.98.18Zm1.56-1.25c.24-.18.43-.4.57-.55.15-.16.25-.26.37-.32l-.45-.89c-.3.15-.51.37-.66.54-.17.19-.28.31-.42.42l.59.81Zm-1.68-2.28c.28-.18.58-.34.97-.57.35-.21.75-.47,1.02-.82l-.78-.62c-.15.19-.41.38-.75.58-.3.18-.72.4-1.01.6l.56.83Zm-.62-2.03h.01s-.7-.73-.7-.73h-.01s.7.73.7.73Zm.01-.01c.32-.31.7-.68,1.1-1,.41-.33.8-.56,1.13-.64l-.24-.97c-.54.14-1.07.48-1.51.83-.45.36-.87.76-1.18,1.07l.7.72Zm-.68-2.6c.41-.27.84-.52,1.28-.78.43-.26.87-.52,1.3-.81l-.55-.83c-.41.27-.83.52-1.26.78-.43.26-.87.52-1.31.8l.54.84Zm.49-2.22c.39-.14.75-.36,1.04-.52.31-.17.57-.3.85-.34l-.16-.99c-.45.08-.84.27-1.16.45-.35.19-.61.35-.9.46l.34.94Zm.9-2.45c.71-.12,1.4-.45,1.99-.71.63-.27,1.16-.47,1.69-.47v-1c-.76,0-1.47.29-2.09.56-.65.28-1.2.55-1.75.64l.16.99Zm1.99-4.15h1.68v-1h-1.68v1Z"/>
        </g>
      </g>
    </g>
  </g>
</svg>