<svg width="52" height="48" viewBox="0 0 52 48" fill="none" xmlns="http://www.w3.org/2000/svg">
<g id="style=fill, state=active">
<path id="Vector" d="M25.8046 19.2002C28.0855 19.2002 30.273 18.2941 31.8858 16.6813C33.4986 15.0684 34.4047 12.881 34.4047 10.6001C34.4047 8.3192 33.4986 6.13174 31.8858 4.51891C30.273 2.90608 28.0855 2 25.8046 2C23.5237 2 21.3363 2.90608 19.7234 4.51891C18.1106 6.13174 17.2045 8.3192 17.2045 10.6001C17.2045 12.881 18.1106 15.0684 19.7234 16.6813C21.3363 18.2941 23.5237 19.2002 25.8046 19.2002ZM14.3378 16.3335C14.3378 17.8541 13.7338 19.3124 12.6586 20.3876C11.5833 21.4628 10.125 22.0669 8.60444 22.0669C7.08385 22.0669 5.62553 21.4628 4.55031 20.3876C3.47509 19.3124 2.87104 17.8541 2.87104 16.3335C2.87104 14.8129 3.47509 13.3546 4.55031 12.2794C5.62553 11.2041 7.08385 10.6001 8.60444 10.6001C10.125 10.6001 11.5833 11.2041 12.6586 12.2794C13.7338 13.3546 14.3378 14.8129 14.3378 16.3335ZM1.40903 37.3349C0.919642 37.0568 0.55316 36.6043 0.382749 36.0678C-0.122347 34.4319 -0.127644 32.6824 0.367537 31.0434C0.862718 29.4045 1.83584 27.9506 3.16228 26.868C4.48872 25.7854 6.10811 25.1234 7.81306 24.9667C9.51802 24.81 11.2309 25.1658 12.7325 25.9885C9.64685 29.0208 7.71557 33.0344 7.27142 37.3378C7.20549 37.9742 7.23129 38.6048 7.34309 39.2126C5.25086 39.0317 3.22449 38.3905 1.40903 37.3349ZM44.2661 39.2097C46.3582 39.0297 48.3845 38.3895 50.2002 37.3349C50.6885 37.0562 51.0539 36.6038 51.2236 36.0678C51.7295 34.4317 51.7354 32.6818 51.2406 31.0423C50.7458 29.4028 49.7727 27.9483 48.4461 26.8653C47.1195 25.7823 45.4997 25.12 43.7944 24.9633C42.089 24.8066 40.3757 25.1625 38.8739 25.9856C41.9622 29.0178 43.8956 33.0327 44.3407 37.3378C44.4046 37.9631 44.3795 38.5943 44.2661 39.2126V39.2097ZM48.7382 16.3335C48.7382 17.8541 48.1341 19.3124 47.0589 20.3876C45.9837 21.4628 44.5254 22.0669 43.0048 22.0669C41.4842 22.0669 40.0259 21.4628 38.9507 20.3876C37.8755 19.3124 37.2714 17.8541 37.2714 16.3335C37.2714 14.8129 37.8755 13.3546 38.9507 12.2794C40.0259 11.2041 41.4842 10.6001 43.0048 10.6001C44.5254 10.6001 45.9837 11.2041 47.0589 12.2794C48.1341 13.3546 48.7382 14.8129 48.7382 16.3335ZM12.3426 39.8117C12.0599 39.5585 11.8407 39.2424 11.7028 38.8888C11.5648 38.5352 11.512 38.1541 11.5485 37.7764C11.9132 34.2489 13.5725 30.9817 16.2059 28.6065C18.8393 26.2313 22.2597 24.9167 25.806 24.9167C29.3524 24.9167 32.7728 26.2313 35.4062 28.6065C38.0396 30.9817 39.6989 34.2489 40.0636 37.7764C40.1003 38.1542 40.0476 38.5353 39.9097 38.8889C39.7717 39.2425 39.5524 39.5587 39.2695 39.8117C35.5835 43.157 30.7823 45.0072 25.8046 45.0005C20.8279 45.0067 16.0277 43.1566 12.3426 39.8117Z" fill="#26262E"/>
</g>
</svg>
