<svg width="132" height="133" viewBox="0 0 132 133" fill="none" xmlns="http://www.w3.org/2000/svg">
<g id="Icono de app">
<g id="Rectangle 168" filter="url(#filter0_dd_2_1463)">
<rect x="7" y="7" width="105" height="105.82" rx="32.8125" fill="#FDFEFF"/>
</g>
<path id="Logotipo reducido" d="M66.2845 60.3176C66.2845 64.5094 63.6023 68.7092 58.6956 68.7092C53.7916 68.7092 50.8417 64.5094 50.8417 60.3176C50.8417 56.1285 53.7916 51.9287 58.6956 51.9287C63.6023 51.9287 66.2845 56.1285 66.2845 60.3176ZM89.8516 48.9388V90.6719H59.5013H48.1193C37.6421 90.6692 29.1484 82.1759 29.1484 71.7018V29.9688H59.5013H70.8833C81.3579 29.9688 89.8516 38.462 89.8516 48.9388ZM74.1411 45.1432C71.657 45.1432 69.4539 46.3343 68.07 48.1759C65.5323 46.2728 62.379 45.1432 58.9633 45.1432C50.582 45.1432 43.7882 51.9368 43.7882 60.3176C43.7882 68.6985 50.582 75.4948 58.9633 75.4948C62.379 75.4948 65.5323 74.3652 68.07 72.4593C68.2841 72.7457 68.5197 73.0161 68.774 73.2704C70.1472 74.6462 72.0451 75.4948 74.1411 75.4948V45.1432Z" fill="#FF8E0A"/>
</g>
<defs>
<filter id="filter0_dd_2_1463" x="0.4375" y="0.4375" width="131.25" height="132.07" filterUnits="userSpaceOnUse" color-interpolation-filters="sRGB">
<feFlood flood-opacity="0" result="BackgroundImageFix"/>
<feColorMatrix in="SourceAlpha" type="matrix" values="0 0 0 0 0 0 0 0 0 0 0 0 0 0 0 0 0 0 127 0" result="hardAlpha"/>
<feOffset dx="6.5625" dy="6.5625"/>
<feGaussianBlur stdDeviation="6.5625"/>
<feColorMatrix type="matrix" values="0 0 0 0 0.0588235 0 0 0 0 0.0666667 0 0 0 0 0.0313726 0 0 0 0.06 0"/>
<feBlend mode="normal" in2="BackgroundImageFix" result="effect1_dropShadow_2_1463"/>
<feColorMatrix in="SourceAlpha" type="matrix" values="0 0 0 0 0 0 0 0 0 0 0 0 0 0 0 0 0 0 127 0" result="hardAlpha"/>
<feOffset/>
<feGaussianBlur stdDeviation="3.28125"/>
<feColorMatrix type="matrix" values="0 0 0 0 0.0588235 0 0 0 0 0.0666667 0 0 0 0 0.0313726 0 0 0 0.06 0"/>
<feBlend mode="normal" in2="effect1_dropShadow_2_1463" result="effect2_dropShadow_2_1463"/>
<feBlend mode="normal" in="SourceGraphic" in2="effect2_dropShadow_2_1463" result="shape"/>
</filter>
</defs>
</svg>
